<svg width="44" height="43" viewBox="0 0 44 43" fill="none" xmlns="http://www.w3.org/2000/svg">
<mask id="mask0_852_13326" style="mask-type:alpha" maskUnits="userSpaceOnUse" x="0" y="0" width="44" height="43">
<rect x="0.845703" y="0.185303" width="42.3086" height="42.3086" fill="#D9D9D9"/>
</mask>
<g mask="url(#mask0_852_13326)">
<path d="M32.5767 27.9504C32.5767 31.006 31.5043 33.6062 29.3595 35.751C27.2147 37.8958 24.6145 38.9682 21.5589 38.9682C18.5033 38.9682 15.903 37.8958 13.7582 35.751C11.6134 33.6062 10.541 31.006 10.541 27.9504V11.6439C10.541 9.44035 11.3123 7.56731 12.8548 6.02481C14.3973 4.48231 16.2703 3.71106 18.4739 3.71106C20.6775 3.71106 22.5505 4.48231 24.093 6.02481C25.6355 7.56731 26.4067 9.44035 26.4067 11.6439V27.0689C26.4067 28.4205 25.9366 29.5663 24.9965 30.5065C24.0563 31.4467 22.9104 31.9168 21.5589 31.9168C20.2074 31.9168 19.0615 31.4467 18.1213 30.5065C17.1811 29.5663 16.711 28.4205 16.711 27.0689V10.7625H20.2367V27.0689C20.2367 27.4509 20.3616 27.7667 20.6113 28.0165C20.8611 28.2662 21.1769 28.3911 21.5589 28.3911C21.9408 28.3911 22.2567 28.2662 22.5064 28.0165C22.7562 27.7667 22.881 27.4509 22.881 27.0689V11.6439C22.8516 10.4099 22.4183 9.3669 21.5809 8.51485C20.7436 7.6628 19.7079 7.23678 18.4739 7.23678C17.2399 7.23678 16.1969 7.6628 15.3448 8.51485C14.4928 9.3669 14.0667 10.4099 14.0667 11.6439V27.9504C14.0374 30.0364 14.7572 31.8066 16.2262 33.261C17.6953 34.7153 19.4728 35.4425 21.5589 35.4425C23.6155 35.4425 25.3637 34.7153 26.8034 33.261C28.243 31.8066 28.9923 30.0364 29.051 27.9504V10.7625H32.5767V27.9504Z" fill="#F0EBFF"/>
</g>
</svg>
