<svg width="43" height="43" viewBox="0 0 43 43" fill="none" xmlns="http://www.w3.org/2000/svg">
<g id="skill-icons:discord" clip-path="url(#clip0_361_4390)">
<g id="Group">
<path id="Vector" d="M32.7726 0.316406H10.2782C4.79736 0.316406 0.354248 4.75952 0.354248 10.2404V32.7347C0.354248 38.2156 4.79736 42.6587 10.2782 42.6587H32.7726C38.2534 42.6587 42.6965 38.2156 42.6965 32.7347V10.2404C42.6965 4.75952 38.2534 0.316406 32.7726 0.316406Z" fill="#5865F2"/>
<g id="Clip path group">
<mask id="mask0_361_4390" style="mask-type:luminance" maskUnits="userSpaceOnUse" x="4" y="8" width="35" height="27">
<g id="skillIconsDiscord0">
<path id="Vector_2" d="M4.98547 8.75195H38.0654V34.3773H4.98547V8.75195Z" fill="white"/>
</g>
</mask>
<g mask="url(#mask0_361_4390)">
<g id="Group_2">
<path id="Vector_3" d="M32.9887 11.0335C30.844 10.0492 28.5807 9.34716 26.2555 8.94503C26.2343 8.94117 26.2125 8.94404 26.1931 8.95324C26.1737 8.96244 26.1577 8.9775 26.1473 8.9963C25.8565 9.51334 25.5343 10.1882 25.3089 10.7184C22.7662 10.3377 20.2367 10.3377 17.7463 10.7184C17.5207 10.1763 17.1869 9.51334 16.8948 8.9963C16.8841 8.97781 16.868 8.96301 16.8486 8.95385C16.8293 8.9447 16.8076 8.94162 16.7865 8.94503C14.461 9.34625 12.1976 10.0483 10.0533 11.0335C10.035 11.0415 10.0196 11.0547 10.0089 11.0716C5.72045 17.4785 4.54578 23.7279 5.12204 29.9C5.12555 29.9305 5.14101 29.9583 5.16504 29.9774C7.99437 32.0553 10.7352 33.3168 13.4251 34.1529C13.446 34.1591 13.4683 34.1588 13.4891 34.152C13.5098 34.1452 13.528 34.1322 13.5412 34.1149C14.1775 33.2459 14.7447 32.3297 15.2311 31.3663C15.2378 31.3531 15.2416 31.3386 15.2423 31.3238C15.243 31.309 15.2406 31.2943 15.2351 31.2805C15.2297 31.2667 15.2214 31.2543 15.2109 31.2439C15.2003 31.2336 15.1876 31.2256 15.1737 31.2205C14.2739 30.8792 13.4173 30.4632 12.5933 29.9906C12.5783 29.9818 12.5657 29.9694 12.5566 29.9545C12.5475 29.9397 12.5422 29.9228 12.5412 29.9054C12.5402 29.888 12.5434 29.8707 12.5507 29.8548C12.558 29.839 12.569 29.8252 12.5829 29.8146C12.7567 29.6847 12.9276 29.5508 13.0953 29.4131C13.11 29.4009 13.1278 29.3932 13.1466 29.3906C13.1655 29.388 13.1847 29.3908 13.2021 29.3985C18.616 31.8702 24.4769 31.8702 29.8268 29.3985C29.8442 29.3903 29.8637 29.3872 29.8829 29.3895C29.902 29.3918 29.9201 29.3996 29.9351 29.4117C30.103 29.5502 30.2743 29.6846 30.4488 29.8146C30.4628 29.8251 30.4739 29.8388 30.4813 29.8546C30.4887 29.8703 30.4921 29.8877 30.4912 29.9051C30.4903 29.9224 30.4851 29.9393 30.4761 29.9543C30.4672 29.9692 30.4547 29.9817 30.4397 29.9906C29.6153 30.4721 28.7516 30.883 27.858 31.2192C27.8442 31.2246 27.8316 31.2328 27.8211 31.2433C27.8107 31.2538 27.8025 31.2664 27.7972 31.2803C27.792 31.2941 27.7896 31.3089 27.7905 31.3238C27.7913 31.3386 27.7952 31.3531 27.802 31.3663C28.2968 32.3221 28.8611 33.2403 29.4904 34.1135C29.5032 34.1313 29.5213 34.1447 29.5421 34.1517C29.5629 34.1588 29.5854 34.1592 29.6065 34.1529C32.3094 33.3168 35.0503 32.0553 37.8797 29.9774C37.8918 29.9684 37.9019 29.957 37.9093 29.9439C37.9167 29.9308 37.9213 29.9163 37.9228 29.9013C38.6125 22.7658 36.7674 16.5675 33.0317 11.0729C33.0226 11.055 33.0074 11.041 32.9887 11.0335ZM16.0396 26.142C14.4096 26.142 13.0665 24.6456 13.0665 22.8078C13.0665 20.9701 14.3836 19.4737 16.0396 19.4737C17.7084 19.4737 19.0384 20.9833 19.0123 22.8078C19.0123 24.6456 17.6954 26.142 16.0396 26.142ZM27.0314 26.142C25.4013 26.142 24.0585 24.6456 24.0585 22.8078C24.0585 20.9701 25.3754 19.4737 27.0314 19.4737C28.7002 19.4737 30.0302 20.9833 30.0043 22.8078C30.0043 24.6456 28.7002 26.142 27.0314 26.142Z" fill="white"/>
</g>
</g>
</g>
</g>
</g>
<defs>
<clipPath id="clip0_361_4390">
<rect width="42.3423" height="42.3423" fill="white" transform="translate(0.511963 0.158203)"/>
</clipPath>
</defs>
</svg>
