<svg width="52" height="52" viewBox="0 0 52 52" fill="none" xmlns="http://www.w3.org/2000/svg">
<g filter="url(#filter0_d_585_7266)">
<path d="M2 13C2 6.37258 7.37258 1 14 1H38C44.6274 1 50 6.37258 50 13V37C50 43.6274 44.6274 49 38 49H14C7.37258 49 2 43.6274 2 37V13Z" fill="#FFEB69" shape-rendering="crispEdges"/>
<path d="M2.5 13C2.5 6.64873 7.64873 1.5 14 1.5H38C44.3513 1.5 49.5 6.64873 49.5 13V37C49.5 43.3513 44.3513 48.5 38 48.5H14C7.64873 48.5 2.5 43.3513 2.5 37V13Z" stroke="#FFEB69" shape-rendering="crispEdges"/>
<rect x="11" y="10.3184" width="28.6819" height="28.6819" rx="14.341" fill="#3A341C"/>
<rect x="23.7709" y="12.3994" width="3.1401" height="24.5202" fill="#FFEB69"/>
<path d="M33.9232 21.8447H30.3907C30.2899 21.2654 30.1042 20.7522 29.8334 20.3052C29.5626 19.8518 29.2257 19.4677 28.8227 19.1528C28.4197 18.838 27.9601 18.6018 27.4437 18.4444C26.9337 18.2807 26.3827 18.1988 25.7908 18.1988C24.7392 18.1988 23.8073 18.4633 22.9949 18.9922C22.1826 19.5149 21.5467 20.2831 21.087 21.2969C20.6273 22.3044 20.3975 23.5355 20.3975 24.9901C20.3975 26.4698 20.6273 27.7166 21.087 28.7304C21.553 29.7379 22.1889 30.4999 22.9949 31.0162C23.8073 31.5262 24.736 31.7813 25.7813 31.7813C26.3606 31.7813 26.9022 31.7057 27.4059 31.5546C27.916 31.3972 28.3725 31.1673 28.7755 30.8651C29.1848 30.5628 29.528 30.1913 29.8051 29.7505C30.0884 29.3097 30.2836 28.806 30.3907 28.2393L33.9232 28.2582C33.791 29.1775 33.5045 30.0402 33.0637 30.8462C32.6292 31.6522 32.0594 32.3637 31.3541 32.9808C30.6488 33.5916 29.824 34.0702 28.8794 34.4165C27.9349 34.7566 26.8864 34.9266 25.7341 34.9266C24.0339 34.9266 22.5164 34.533 21.1814 33.7459C19.8465 32.9588 18.7949 31.8222 18.0267 30.3361C17.2585 28.8501 16.8744 27.068 16.8744 24.9901C16.8744 22.9058 17.2616 21.1238 18.0361 19.644C18.8107 18.1579 19.8654 17.0213 21.2003 16.2342C22.5353 15.4471 24.0465 15.0535 25.7341 15.0535C26.8109 15.0535 27.8121 15.2047 28.7377 15.5069C29.6634 15.8092 30.4883 16.2531 31.2124 16.8387C31.9366 17.418 32.5316 18.1296 32.9976 18.9734C33.4699 19.8108 33.7784 20.768 33.9232 21.8447Z" fill="#FFEB69"/>
</g>
<defs>
<filter id="filter0_d_585_7266" x="0" y="0" width="52" height="52" filterUnits="userSpaceOnUse" color-interpolation-filters="sRGB">
<feFlood flood-opacity="0" result="BackgroundImageFix"/>
<feColorMatrix in="SourceAlpha" type="matrix" values="0 0 0 0 0 0 0 0 0 0 0 0 0 0 0 0 0 0 127 0" result="hardAlpha"/>
<feOffset dy="1"/>
<feGaussianBlur stdDeviation="1"/>
<feComposite in2="hardAlpha" operator="out"/>
<feColorMatrix type="matrix" values="0 0 0 0 0.0627451 0 0 0 0 0.0941176 0 0 0 0 0.156863 0 0 0 0.05 0"/>
<feBlend mode="normal" in2="BackgroundImageFix" result="effect1_dropShadow_585_7266"/>
<feBlend mode="normal" in="SourceGraphic" in2="effect1_dropShadow_585_7266" result="shape"/>
</filter>
</defs>
</svg>
