<svg width="52" height="53" viewBox="0 0 52 53" fill="none" xmlns="http://www.w3.org/2000/svg">
<g filter="url(#filter0_d_585_7278)">
<path d="M2 13.0723C2 6.44485 7.37258 1.07227 14 1.07227H38C44.6274 1.07227 50 6.44485 50 13.0723V37.0723C50 43.6997 44.6274 49.0723 38 49.0723H14C7.37258 49.0723 2 43.6997 2 37.0723V13.0723Z" fill="#A0E1E1" shape-rendering="crispEdges"/>
<path d="M2.5 13.0723C2.5 6.72099 7.64873 1.57227 14 1.57227H38C44.3513 1.57227 49.5 6.72099 49.5 13.0723V37.0723C49.5 43.4235 44.3513 48.5723 38 48.5723H14C7.64873 48.5723 2.5 43.4235 2.5 37.0723V13.0723Z" stroke="#A0E1E1" shape-rendering="crispEdges"/>
<rect x="11" y="10.3906" width="28.6819" height="28.6819" rx="14.341" fill="#21231D"/>
<rect x="23.7709" y="12.4717" width="3.1401" height="24.5202" fill="#A0E1E1"/>
<path d="M33.9232 21.917H30.3907C30.2899 21.3377 30.1042 20.8245 29.8334 20.3774C29.5626 19.924 29.2257 19.5399 28.8227 19.2251C28.4197 18.9102 27.9601 18.6741 27.4437 18.5167C26.9337 18.353 26.3827 18.2711 25.7908 18.2711C24.7392 18.2711 23.8073 18.5356 22.9949 19.0645C22.1826 19.5872 21.5467 20.3554 21.087 21.3692C20.6273 22.3767 20.3975 23.6077 20.3975 25.0623C20.3975 26.5421 20.6273 27.7889 21.087 28.8027C21.553 29.8102 22.1889 30.5721 22.9949 31.0885C23.8073 31.5985 24.736 31.8535 25.7813 31.8535C26.3606 31.8535 26.9022 31.778 27.4059 31.6268C27.916 31.4694 28.3725 31.2396 28.7755 30.9373C29.1848 30.6351 29.528 30.2636 29.8051 29.8228C30.0884 29.382 30.2836 28.8782 30.3907 28.3115L33.9232 28.3304C33.791 29.2498 33.5045 30.1124 33.0637 30.9184C32.6292 31.7245 32.0594 32.436 31.3541 33.0531C30.6488 33.6639 29.824 34.1425 28.8794 34.4888C27.9349 34.8288 26.8864 34.9988 25.7341 34.9988C24.0339 34.9988 22.5164 34.6053 21.1814 33.8182C19.8465 33.0311 18.7949 31.8945 18.0267 30.4084C17.2585 28.9223 16.8744 27.1403 16.8744 25.0623C16.8744 22.978 17.2616 21.196 18.0361 19.7162C18.8107 18.2302 19.8654 17.0936 21.2003 16.3065C22.5353 15.5194 24.0465 15.1258 25.7341 15.1258C26.8109 15.1258 27.8121 15.2769 28.7377 15.5792C29.6634 15.8814 30.4883 16.3254 31.2124 16.911C31.9366 17.4903 32.5316 18.2018 32.9976 19.0456C33.4699 19.8831 33.7784 20.8402 33.9232 21.917Z" fill="#A0E1E1"/>
</g>
<defs>
<filter id="filter0_d_585_7278" x="0" y="0.0722656" width="52" height="52" filterUnits="userSpaceOnUse" color-interpolation-filters="sRGB">
<feFlood flood-opacity="0" result="BackgroundImageFix"/>
<feColorMatrix in="SourceAlpha" type="matrix" values="0 0 0 0 0 0 0 0 0 0 0 0 0 0 0 0 0 0 127 0" result="hardAlpha"/>
<feOffset dy="1"/>
<feGaussianBlur stdDeviation="1"/>
<feComposite in2="hardAlpha" operator="out"/>
<feColorMatrix type="matrix" values="0 0 0 0 0.0627451 0 0 0 0 0.0941176 0 0 0 0 0.156863 0 0 0 0.05 0"/>
<feBlend mode="normal" in2="BackgroundImageFix" result="effect1_dropShadow_585_7278"/>
<feBlend mode="normal" in="SourceGraphic" in2="effect1_dropShadow_585_7278" result="shape"/>
</filter>
</defs>
</svg>
