<svg width="41" height="41" viewBox="0 0 41 41" fill="none" xmlns="http://www.w3.org/2000/svg">
<g id="logos:facebook" clip-path="url(#clip0_361_4440)">
<path id="Vector" d="M39.6023 20.8662C39.6023 9.78553 30.6195 0.802734 19.5388 0.802734C8.45814 0.802734 -0.524658 9.78553 -0.524658 20.8662C-0.524658 30.8804 6.8123 39.1809 16.4039 40.6859V26.6658H11.3097V20.8662H16.4039V16.446C16.4039 11.4176 19.3993 8.64003 23.9823 8.64003C26.1773 8.64003 28.4733 9.03189 28.4733 9.03189V13.9694H25.9435C23.451 13.9694 22.6737 15.516 22.6737 17.1027V20.8662H28.2382L27.3487 26.6658H22.6737V40.6859C32.2653 39.1809 39.6023 30.8806 39.6023 20.8662Z" fill="#1877F2"/>
<path id="Vector_2" d="M27.3487 26.6645L28.2383 20.8649H22.6738V17.1014C22.6738 15.5145 23.4511 13.968 25.9435 13.968H28.4734V9.03054C28.4734 9.03054 26.1774 8.63867 23.9821 8.63867C19.3993 8.63867 16.4039 11.4162 16.4039 16.4446V20.8649H11.3097V26.6645H16.4039V40.6846C17.441 40.8471 18.4891 40.9286 19.5389 40.9283C20.5886 40.9286 21.6367 40.8471 22.6738 40.6846V26.6645H27.3487Z" fill="white"/>
</g>
<defs>
<clipPath id="clip0_361_4440">
<rect width="40.127" height="40.127" fill="white" transform="translate(0.119629 0.714844)"/>
</clipPath>
</defs>
</svg>
