<svg width="43" height="42" viewBox="0 0 43 42" fill="none" xmlns="http://www.w3.org/2000/svg">
<g clip-path="url(#clip0_361_4440)">
<path d="M40.7854 21.3662C40.7854 10.2855 31.8026 1.30273 20.7219 1.30273C9.64124 1.30273 0.658447 10.2855 0.658447 21.3662C0.658447 31.3804 7.99541 39.6809 17.587 41.1859V27.1658H12.4928V21.3662H17.587V16.946C17.587 11.9176 20.5824 9.14003 25.1654 9.14003C27.3604 9.14003 29.6564 9.53189 29.6564 9.53189V14.4694H27.1266C24.6341 14.4694 23.8568 16.016 23.8568 17.6027V21.3662H29.4213L28.5318 27.1658H23.8568V41.1859C33.4484 39.6809 40.7854 31.3806 40.7854 21.3662Z" fill="#1877F2"/>
<path d="M28.5318 27.1645L29.4214 21.3649H23.8569V17.6014C23.8569 16.0145 24.6342 14.468 27.1266 14.468H29.6565V9.53054C29.6565 9.53054 27.3605 9.13867 25.1652 9.13867C20.5825 9.13867 17.587 11.9162 17.587 16.9446V21.3649H12.4928V27.1645H17.587V41.1846C18.6241 41.3471 19.6722 41.4286 20.722 41.4283C21.7717 41.4286 22.8198 41.3471 23.8569 41.1846V27.1645H28.5318Z" fill="white"/>
</g>
<defs>
<clipPath id="clip0_361_4440">
<rect width="42" height="41" fill="white" transform="translate(0.183105 0.5)"/>
</clipPath>
</defs>
</svg>
