<svg width="36" height="37" viewBox="0 0 36 37" fill="none" xmlns="http://www.w3.org/2000/svg">
<rect y="0.0687256" width="36" height="36" rx="18" fill="#DB8A00"/>
<mask id="mask0_848_12283" style="mask-type:alpha" maskUnits="userSpaceOnUse" x="6" y="6" width="24" height="25">
<rect x="6" y="6.06873" width="24" height="24" fill="#D9D9D9"/>
</mask>
<g mask="url(#mask0_848_12283)">
<path d="M11 27.0687C10.45 27.0687 9.97917 26.8729 9.5875 26.4812C9.19583 26.0896 9 25.6187 9 25.0687V11.0687C9 10.5187 9.19583 10.0479 9.5875 9.65623C9.97917 9.26456 10.45 9.06873 11 9.06873H15.2C15.4167 8.46873 15.7792 7.98539 16.2875 7.61873C16.7958 7.25206 17.3667 7.06873 18 7.06873C18.6333 7.06873 19.2042 7.25206 19.7125 7.61873C20.2208 7.98539 20.5833 8.46873 20.8 9.06873H25C25.55 9.06873 26.0208 9.26456 26.4125 9.65623C26.8042 10.0479 27 10.5187 27 11.0687V25.0687C27 25.6187 26.8042 26.0896 26.4125 26.4812C26.0208 26.8729 25.55 27.0687 25 27.0687H11ZM11 25.0687H25V11.0687H11V25.0687ZM13 23.0687H20V21.0687H13V23.0687ZM13 19.0687H23V17.0687H13V19.0687ZM13 15.0687H23V13.0687H13V15.0687ZM18 10.3187C18.2167 10.3187 18.3958 10.2479 18.5375 10.1062C18.6792 9.96456 18.75 9.78539 18.75 9.56873C18.75 9.35206 18.6792 9.17289 18.5375 9.03123C18.3958 8.88956 18.2167 8.81873 18 8.81873C17.7833 8.81873 17.6042 8.88956 17.4625 9.03123C17.3208 9.17289 17.25 9.35206 17.25 9.56873C17.25 9.78539 17.3208 9.96456 17.4625 10.1062C17.6042 10.2479 17.7833 10.3187 18 10.3187Z" fill="#F8F6FF"/>
</g>
</svg>
