<svg width="52" height="53" viewBox="0 0 52 53" fill="none" xmlns="http://www.w3.org/2000/svg">
<g filter="url(#filter0_d_585_7290)">
<path d="M2 13.1445C2 6.51711 7.37258 1.14453 14 1.14453H38C44.6274 1.14453 50 6.51711 50 13.1445V37.1445C50 43.7719 44.6274 49.1445 38 49.1445H14C7.37258 49.1445 2 43.7719 2 37.1445V13.1445Z" fill="#9FE870" shape-rendering="crispEdges"/>
<path d="M2.5 13.1445C2.5 6.79326 7.64873 1.64453 14 1.64453H38C44.3513 1.64453 49.5 6.79326 49.5 13.1445V37.1445C49.5 43.4958 44.3513 48.6445 38 48.6445H14C7.64873 48.6445 2.5 43.4958 2.5 37.1445V13.1445Z" stroke="#9FE870" shape-rendering="crispEdges"/>
<rect x="11" y="10.4629" width="28.6819" height="28.6819" rx="14.341" fill="#1D3200"/>
<rect x="23.7709" y="12.5439" width="3.1401" height="24.5202" fill="#9FE870"/>
<path d="M33.9232 21.9893H30.3907C30.2899 21.41 30.1042 20.8968 29.8334 20.4497C29.5626 19.9963 29.2257 19.6122 28.8227 19.2973C28.4197 18.9825 27.9601 18.7464 27.4437 18.5889C26.9337 18.4252 26.3827 18.3434 25.7908 18.3434C24.7392 18.3434 23.8073 18.6078 22.9949 19.1368C22.1826 19.6594 21.5467 20.4276 21.087 21.4414C20.6273 22.449 20.3975 23.68 20.3975 25.1346C20.3975 26.6144 20.6273 27.8611 21.087 28.875C21.553 29.8825 22.1889 30.6444 22.9949 31.1607C23.8073 31.6708 24.736 31.9258 25.7813 31.9258C26.3606 31.9258 26.9022 31.8502 27.4059 31.6991C27.916 31.5417 28.3725 31.3119 28.7755 31.0096C29.1848 30.7074 29.528 30.3358 29.8051 29.895C30.0884 29.4543 30.2836 28.9505 30.3907 28.3838L33.9232 28.4027C33.791 29.322 33.5045 30.1847 33.0637 30.9907C32.6292 31.7967 32.0594 32.5083 31.3541 33.1254C30.6488 33.7362 29.824 34.2147 28.8794 34.5611C27.9349 34.9011 26.8864 35.0711 25.7341 35.0711C24.0339 35.0711 22.5164 34.6776 21.1814 33.8904C19.8465 33.1033 18.7949 31.9667 18.0267 30.4807C17.2585 28.9946 16.8744 27.2126 16.8744 25.1346C16.8744 23.0503 17.2616 21.2683 18.0361 19.7885C18.8107 18.3024 19.8654 17.1658 21.2003 16.3787C22.5353 15.5916 24.0465 15.1981 25.7341 15.1981C26.8109 15.1981 27.8121 15.3492 28.7377 15.6514C29.6634 15.9537 30.4883 16.3976 31.2124 16.9832C31.9366 17.5625 32.5316 18.2741 32.9976 19.1179C33.4699 19.9554 33.7784 20.9125 33.9232 21.9893Z" fill="#9FE870"/>
</g>
<defs>
<filter id="filter0_d_585_7290" x="0" y="0.144531" width="52" height="52" filterUnits="userSpaceOnUse" color-interpolation-filters="sRGB">
<feFlood flood-opacity="0" result="BackgroundImageFix"/>
<feColorMatrix in="SourceAlpha" type="matrix" values="0 0 0 0 0 0 0 0 0 0 0 0 0 0 0 0 0 0 127 0" result="hardAlpha"/>
<feOffset dy="1"/>
<feGaussianBlur stdDeviation="1"/>
<feComposite in2="hardAlpha" operator="out"/>
<feColorMatrix type="matrix" values="0 0 0 0 0.0627451 0 0 0 0 0.0941176 0 0 0 0 0.156863 0 0 0 0.05 0"/>
<feBlend mode="normal" in2="BackgroundImageFix" result="effect1_dropShadow_585_7290"/>
<feBlend mode="normal" in="SourceGraphic" in2="effect1_dropShadow_585_7290" result="shape"/>
</filter>
</defs>
</svg>
