<svg width="43" height="43" viewBox="0 0 43 43" fill="none" xmlns="http://www.w3.org/2000/svg">
<g id="skill-icons:linkedin" clip-path="url(#clip0_361_4451)">
<g id="Group">
<path id="Vector" d="M32.286 0.371094H9.79165C4.31079 0.371094 -0.132324 4.81421 -0.132324 10.2951V32.7894C-0.132324 38.2703 4.31079 42.7134 9.79165 42.7134H32.286C37.7668 42.7134 42.21 38.2703 42.21 32.7894V10.2951C42.21 4.81421 37.7668 0.371094 32.286 0.371094Z" fill="white"/>
<path id="Vector_2" d="M32.286 0.371094H9.79165C4.31079 0.371094 -0.132324 4.81421 -0.132324 10.2951V32.7894C-0.132324 38.2703 4.31079 42.7134 9.79165 42.7134H32.286C37.7668 42.7134 42.21 38.2703 42.21 32.7894V10.2951C42.21 4.81421 37.7668 0.371094 32.286 0.371094Z" fill="#0A66C2"/>
<path id="Vector_3" d="M30.4194 36.3761H35.2607C35.4361 36.3761 35.6044 36.3064 35.7284 36.1823C35.8525 36.0583 35.9222 35.8901 35.9223 35.7146L35.9248 25.486C35.9248 20.1398 34.7727 16.0304 28.5251 16.0304C26.1501 15.9421 23.9105 17.1664 22.7019 19.2107C22.696 19.2207 22.687 19.2284 22.6763 19.2327C22.6656 19.2371 22.6537 19.2378 22.6426 19.2348C22.6314 19.2317 22.6216 19.2252 22.6145 19.216C22.6074 19.2069 22.6036 19.1957 22.6035 19.1841V17.1856C22.6035 17.0101 22.5338 16.8418 22.4097 16.7178C22.2856 16.5937 22.1173 16.524 21.9419 16.524H17.3476C17.1721 16.524 17.0038 16.5937 16.8798 16.7178C16.7557 16.8418 16.686 17.0101 16.686 17.1856V35.7136C16.686 35.8891 16.7557 36.0574 16.8798 36.1815C17.0038 36.3055 17.1721 36.3752 17.3476 36.3752H22.1885C22.364 36.3752 22.5322 36.3055 22.6563 36.1815C22.7804 36.0574 22.8501 35.8891 22.8501 35.7136V26.555C22.8501 23.9653 23.3413 21.4574 26.5519 21.4574C29.7168 21.4574 29.7578 24.4207 29.7578 26.7227V35.7145C29.7578 35.8899 29.8275 36.0582 29.9516 36.1823C30.0757 36.3064 30.244 36.3761 30.4194 36.3761ZM6.15283 10.2335C6.15283 12.1958 7.76829 13.8104 9.73076 13.8104C11.6927 13.8103 13.3072 12.1947 13.3072 10.2327C13.3069 8.27072 11.6922 6.65625 9.73009 6.65625C7.76746 6.65625 6.15283 8.27121 6.15283 10.2335ZM7.30385 36.3761H12.1512C12.3267 36.3761 12.495 36.3064 12.619 36.1823C12.7431 36.0582 12.8128 35.8899 12.8128 35.7145V17.1856C12.8128 17.0101 12.7431 16.8418 12.619 16.7178C12.495 16.5937 12.3267 16.524 12.1512 16.524H7.30385C7.12838 16.524 6.9601 16.5937 6.83603 16.7178C6.71195 16.8418 6.64225 17.0101 6.64225 17.1856V35.7145C6.64225 35.8899 6.71195 36.0582 6.83603 36.1823C6.9601 36.3064 7.12838 36.3761 7.30385 36.3761Z" fill="white"/>
</g>
</g>
<defs>
<clipPath id="clip0_361_4451">
<rect width="42.3423" height="42.3423" fill="white" transform="translate(0.511963 0.5)"/>
</clipPath>
</defs>
</svg>
