<svg width="45" height="45" viewBox="0 0 45 45" fill="none" xmlns="http://www.w3.org/2000/svg">
<g id="skill-icons:linkedin" clip-path="url(#clip0_361_4451)">
<g id="Group">
<path id="Vector" d="M33.6831 0.369141H10.8394C5.27336 0.369141 0.76123 4.88127 0.76123 10.4473V33.291C0.76123 38.857 5.27336 43.3691 10.8394 43.3691H33.6831C39.2491 43.3691 43.7612 38.857 43.7612 33.291V10.4473C43.7612 4.88127 39.2491 0.369141 33.6831 0.369141Z" fill="white"/>
<path id="Vector_2" d="M33.6831 0.369141H10.8394C5.27336 0.369141 0.76123 4.88127 0.76123 10.4473V33.291C0.76123 38.857 5.27336 43.3691 10.8394 43.3691H33.6831C39.2491 43.3691 43.7612 38.857 43.7612 33.291V10.4473C43.7612 4.88127 39.2491 0.369141 33.6831 0.369141Z" fill="#0A66C2"/>
<path id="Vector_3" d="M31.7876 36.9334H36.704C36.8822 36.9334 37.0531 36.8627 37.1791 36.7367C37.305 36.6107 37.3759 36.4399 37.3759 36.2617L37.3784 25.8742C37.3784 20.4449 36.2085 16.2718 29.8638 16.2718C27.452 16.1821 25.1775 17.4254 23.9502 19.5015C23.9442 19.5115 23.935 19.5194 23.9241 19.5238C23.9133 19.5282 23.9013 19.5289 23.8899 19.5259C23.8786 19.5228 23.8686 19.5161 23.8614 19.5068C23.8542 19.4975 23.8503 19.4861 23.8502 19.4744V17.4448C23.8502 17.2667 23.7794 17.0958 23.6534 16.9698C23.5274 16.8438 23.3565 16.773 23.1783 16.773H18.5127C18.3345 16.773 18.1636 16.8438 18.0376 16.9698C17.9116 17.0958 17.8408 17.2667 17.8408 17.4448V36.2607C17.8408 36.4389 17.9116 36.6098 18.0376 36.7358C18.1636 36.8618 18.3345 36.9326 18.5127 36.9326H23.4288C23.607 36.9326 23.7779 36.8618 23.9039 36.7358C24.0299 36.6098 24.1007 36.4389 24.1007 36.2607V26.9598C24.1007 24.3299 24.5995 21.783 27.86 21.783C31.074 21.783 31.1157 24.7923 31.1157 27.1301V36.2615C31.1157 36.4397 31.1865 36.6106 31.3125 36.7366C31.4385 36.8626 31.6094 36.9334 31.7876 36.9334ZM7.14404 10.3848C7.14404 12.3776 8.78459 14.0173 10.7775 14.0173C12.77 14.0171 14.4095 12.3764 14.4095 10.3839C14.4092 8.3915 12.7695 6.75195 10.7769 6.75195C8.78375 6.75195 7.14404 8.392 7.14404 10.3848ZM8.31294 36.9334H13.2356C13.4138 36.9334 13.5847 36.8626 13.7107 36.7366C13.8367 36.6106 13.9075 36.4397 13.9075 36.2615V17.4448C13.9075 17.2667 13.8367 17.0958 13.7107 16.9698C13.5847 16.8438 13.4138 16.773 13.2356 16.773H8.31294C8.13475 16.773 7.96385 16.8438 7.83785 16.9698C7.71185 17.0958 7.64106 17.2667 7.64106 17.4448V36.2615C7.64106 36.4397 7.71185 36.6106 7.83785 36.7366C7.96385 36.8626 8.13475 36.9334 8.31294 36.9334Z" fill="white"/>
</g>
</g>
<defs>
<clipPath id="clip0_361_4451">
<rect width="44" height="45" fill="white" transform="translate(0.683105)"/>
</clipPath>
</defs>
</svg>
