<svg width="36" height="37" viewBox="0 0 36 37" fill="none" xmlns="http://www.w3.org/2000/svg">
<rect y="0.3396" width="36" height="36" rx="18" fill="#EA749F"/>
<mask id="mask0_848_12270" style="mask-type:alpha" maskUnits="userSpaceOnUse" x="6" y="6" width="24" height="25">
<rect x="6" y="6.3396" width="24" height="24" fill="#D9D9D9"/>
</mask>
<g mask="url(#mask0_848_12270)">
<path d="M10 28.3396C9.45 28.3396 8.97917 28.1438 8.5875 27.7521C8.19583 27.3604 8 26.8896 8 26.3396V15.3396C8 14.7896 8.19583 14.3188 8.5875 13.9271C8.97917 13.5354 9.45 13.3396 10 13.3396H15V10.3396C15 9.7896 15.1958 9.31877 15.5875 8.9271C15.9792 8.53543 16.45 8.3396 17 8.3396H19C19.55 8.3396 20.0208 8.53543 20.4125 8.9271C20.8042 9.31877 21 9.7896 21 10.3396V13.3396H26C26.55 13.3396 27.0208 13.5354 27.4125 13.9271C27.8042 14.3188 28 14.7896 28 15.3396V26.3396C28 26.8896 27.8042 27.3604 27.4125 27.7521C27.0208 28.1438 26.55 28.3396 26 28.3396H10ZM10 26.3396H26V15.3396H21C21 15.8896 20.8042 16.3604 20.4125 16.7521C20.0208 17.1438 19.55 17.3396 19 17.3396H17C16.45 17.3396 15.9792 17.1438 15.5875 16.7521C15.1958 16.3604 15 15.8896 15 15.3396H10V26.3396ZM12 24.3396H18V23.8896C18 23.6063 17.9208 23.3438 17.7625 23.1021C17.6042 22.8604 17.3833 22.6729 17.1 22.5396C16.7667 22.3896 16.4292 22.2771 16.0875 22.2021C15.7458 22.1271 15.3833 22.0896 15 22.0896C14.6167 22.0896 14.2542 22.1271 13.9125 22.2021C13.5708 22.2771 13.2333 22.3896 12.9 22.5396C12.6167 22.6729 12.3958 22.8604 12.2375 23.1021C12.0792 23.3438 12 23.6063 12 23.8896V24.3396ZM20 22.8396H24V21.3396H20V22.8396ZM15 21.3396C15.4167 21.3396 15.7708 21.1938 16.0625 20.9021C16.3542 20.6104 16.5 20.2563 16.5 19.8396C16.5 19.4229 16.3542 19.0688 16.0625 18.7771C15.7708 18.4854 15.4167 18.3396 15 18.3396C14.5833 18.3396 14.2292 18.4854 13.9375 18.7771C13.6458 19.0688 13.5 19.4229 13.5 19.8396C13.5 20.2563 13.6458 20.6104 13.9375 20.9021C14.2292 21.1938 14.5833 21.3396 15 21.3396ZM20 19.8396H24V18.3396H20V19.8396ZM17 15.3396H19V10.3396H17V15.3396Z" fill="#F8F6FF"/>
</g>
</svg>
