<svg width="60" height="15" viewBox="0 0 60 15" fill="none" xmlns="http://www.w3.org/2000/svg">
<path id="Vector 151" d="M1.42285 6.5C0.870567 6.5 0.422852 6.94772 0.422852 7.5C0.422852 8.05228 0.870567 8.5 1.42285 8.5V6.5ZM58.8604 8.20711C59.2509 7.81658 59.2509 7.18342 58.8604 6.79289L52.4965 0.428932C52.1059 0.0384078 51.4728 0.0384078 51.0823 0.428932C50.6917 0.819457 50.6917 1.45262 51.0823 1.84315L56.7391 7.5L51.0823 13.1569C50.6917 13.5474 50.6917 14.1805 51.0823 14.5711C51.4728 14.9616 52.1059 14.9616 52.4965 14.5711L58.8604 8.20711ZM1.42285 8.5H58.1533V6.5H1.42285V8.5Z" fill="#C8FF7D"/>
</svg>
