<svg width="74" height="75" viewBox="0 0 74 75" fill="none" xmlns="http://www.w3.org/2000/svg">
<path d="M0.226318 37.7532C0.226318 17.4121 16.716 0.922363 37.0571 0.922363C57.3982 0.922363 73.8879 17.4121 73.8879 37.7532C73.8879 58.0942 57.3982 74.584 37.0571 74.584C16.716 74.584 0.226318 58.0942 0.226318 37.7532Z" fill="#86CD58"/>
<path d="M34.9563 9.73726C35.4981 9.28684 36.1786 8.94336 37.0571 8.94336C37.9356 8.94336 38.6161 9.28684 39.1579 9.73726C39.5847 10.0919 40.0593 10.6534 40.4247 11.0859C42.7964 13.8884 44.5084 17.34 44.5084 21.4213V24.5654C44.5084 25.978 44.527 26.4861 44.6271 26.818L44.6283 26.8224C44.6638 26.94 44.8351 27.1855 45.4048 27.6037C46.5113 28.3073 48.5363 29.595 48.5363 32.167C48.5363 33.3229 48.2973 34.5569 47.4253 35.4912C46.528 36.4523 45.3037 36.735 44.152 36.735H29.9621C28.8104 36.735 27.5861 36.4523 26.689 35.4912C25.817 34.5569 25.5779 33.3229 25.5779 32.167C25.5779 29.595 27.6029 28.3073 28.7094 27.6037C29.2791 27.1855 29.4505 26.94 29.4859 26.8224L29.4872 26.818C29.5871 26.4861 29.6057 25.978 29.6057 24.5654V21.4213C29.6057 17.34 31.3177 13.8884 33.6895 11.0859C34.0549 10.6534 34.5295 10.0919 34.9563 9.73726Z" fill="black"/>
<path fill-rule="evenodd" clip-rule="evenodd" d="M17.2249 44.341C18.1015 40.7462 21.2639 37.9434 25.2484 37.9434C26.5528 37.9434 27.6101 38.9712 27.6101 40.2392C27.6101 41.5072 26.5528 42.535 25.2484 42.535C23.4331 42.535 21.7058 44.1063 21.7058 46.3613V48.6572H19.344C17.5288 48.6572 15.8014 50.2285 15.8014 52.4837C15.8014 54.7387 17.5288 56.31 19.344 56.31C20.6484 56.31 21.7058 57.3378 21.7058 58.6059C21.7058 59.8739 20.6484 60.9017 19.344 60.9017C14.6375 60.9017 11.0779 56.991 11.0779 52.4837C11.0779 48.6828 13.6092 45.306 17.2249 44.341ZM46.5041 40.2392C46.5041 38.9712 47.5614 37.9434 48.8659 37.9434C52.8503 37.9434 56.0127 40.7462 56.8892 44.341C60.5051 45.306 63.0363 48.6828 63.0363 52.4837C63.0363 56.991 59.4768 60.9017 54.7701 60.9017C53.4658 60.9017 52.4085 59.8739 52.4085 58.6059C52.4085 57.3378 53.4658 56.31 54.7701 56.31C56.5855 56.31 58.3129 54.7387 58.3129 52.4837C58.3129 50.2285 56.5855 48.6572 54.7701 48.6572C53.4658 48.6572 52.4085 47.6294 52.4085 46.3613C52.4085 44.1063 50.6811 42.535 48.8659 42.535C47.5614 42.535 46.5041 41.5072 46.5041 40.2392ZM32.3337 40.2392C33.638 40.2392 34.6953 41.267 34.6953 42.535V54.0142C34.6953 55.2822 33.638 56.31 32.3337 56.31C31.0293 56.31 29.9719 55.2822 29.9719 54.0142V42.535C29.9719 41.267 31.0293 40.2392 32.3337 40.2392ZM41.7805 40.2392C43.085 40.2392 44.1423 41.267 44.1423 42.535V47.1267C44.1423 48.3947 43.085 49.4225 41.7805 49.4225C40.4762 49.4225 39.4189 48.3947 39.4189 47.1267V42.535C39.4189 41.267 40.4762 40.2392 41.7805 40.2392Z" fill="black"/>
</svg>
