<svg width="38" height="35" viewBox="0 0 38 35" fill="none" xmlns="http://www.w3.org/2000/svg">
<path d="M21.6576 17.8547C23.8024 16.2682 25.4771 14.5273 26.6818 12.6323C27.8864 10.7372 28.4887 8.84947 28.4887 6.96908C28.4887 6.02889 28.3344 5.33844 28.0259 4.89773C27.7174 4.45701 27.2988 4.23665 26.7699 4.23665C25.389 4.23665 24.1697 5.40455 23.112 7.74033C22.0543 10.0761 21.5254 12.7131 21.5254 15.6512C21.5254 16.0625 21.5327 16.4518 21.5474 16.8191C21.5621 17.1863 21.5988 17.5315 21.6576 17.8547ZM2.13395 34.2052V30.6795H5.65967V34.2052H2.13395ZM9.18538 34.2052V30.6795H12.7111V34.2052H9.18538ZM16.2368 34.2052V30.6795H19.7625V34.2052H16.2368ZM23.2882 34.2052V30.6795H26.814V34.2052H23.2882ZM30.3397 34.2052V30.6795H33.8654V34.2052H30.3397ZM2.8391 27.1538L0.371094 24.6858L3.19167 21.8652L0.371094 19.0447L2.8391 16.5767L5.65967 19.3972L8.48024 16.5767L10.9482 19.0447L8.12767 21.8652L10.9482 24.6858L8.48024 27.1538L5.65967 24.3332L2.8391 27.1538ZM24.0815 25.391C23.2001 25.391 22.3921 25.222 21.6576 24.8841C20.9231 24.5462 20.2914 23.9954 19.7625 23.2315C19.028 23.6428 18.2715 24.01 17.4929 24.3332C16.7143 24.6564 15.9136 24.9796 15.091 25.3028L13.857 21.9974C14.6796 21.7036 15.4656 21.3878 16.2148 21.0499C16.964 20.712 17.6912 20.3521 18.3963 19.9702C18.2494 19.3238 18.1392 18.6186 18.0658 17.8547C17.9923 17.0908 17.9556 16.2682 17.9556 15.3867C17.9556 11.1559 18.793 7.65219 20.4677 4.87569C22.1424 2.09919 24.2431 0.710938 26.7699 0.710938C28.2977 0.710938 29.5464 1.27652 30.516 2.40769C31.4855 3.53886 31.9703 5.11808 31.9703 7.14537C31.9703 9.67213 31.1697 12.1695 29.5684 14.6375C27.9672 17.1055 25.7416 19.3238 22.8916 21.2923C23.0973 21.498 23.3103 21.6522 23.5306 21.7551C23.751 21.8579 23.9787 21.9093 24.2138 21.9093C24.9777 21.9093 25.8664 21.4245 26.8801 20.4549C27.8937 19.4854 28.8119 18.2073 29.6345 16.6207L32.8518 18.1192C32.6461 18.6186 32.4845 19.2209 32.367 19.9261C32.2494 20.6312 32.2641 21.2482 32.411 21.7771C32.7049 21.6302 33.0501 21.3805 33.4467 21.0279C33.8434 20.6753 34.2474 20.2346 34.6587 19.7057L37.4352 21.8652C36.6713 22.923 35.7899 23.775 34.7909 24.4214C33.7919 25.0678 32.8664 25.391 32.0144 25.391C31.3974 25.391 30.8465 25.2073 30.3617 24.8401C29.8769 24.4728 29.4729 23.9072 29.1498 23.1433C28.3271 23.8778 27.4897 24.4361 26.6377 24.818C25.7856 25.2 24.9336 25.391 24.0815 25.391Z" fill="white"/>
</svg>
