<svg width="36" height="37" viewBox="0 0 36 37" fill="none" xmlns="http://www.w3.org/2000/svg">
<rect y="0.610474" width="36" height="36" rx="18" fill="#3877EF"/>
<mask id="mask0_848_12294" style="mask-type:alpha" maskUnits="userSpaceOnUse" x="6" y="6" width="24" height="25">
<rect x="6" y="6.61047" width="24" height="24" fill="#D9D9D9"/>
</mask>
<g mask="url(#mask0_848_12294)">
<path d="M18.475 23.4355L26.85 15.0605L25.55 13.7605L17.175 22.1355L18.475 23.4355ZM11.95 25.6105C10.2833 25.5271 9.04167 25.1771 8.225 24.5605C7.40833 23.9438 7 23.0521 7 21.8855C7 20.8021 7.44583 19.923 8.3375 19.248C9.22917 18.573 10.4667 18.1688 12.05 18.0355C12.7 17.9855 13.1875 17.8813 13.5125 17.723C13.8375 17.5646 14 17.3438 14 17.0605C14 16.6271 13.7542 16.3021 13.2625 16.0855C12.7708 15.8688 11.9583 15.7105 10.825 15.6105L11 13.6105C12.7167 13.7438 13.9792 14.0896 14.7875 14.648C15.5958 15.2063 16 16.0105 16 17.0605C16 17.9438 15.6792 18.6355 15.0375 19.1355C14.3958 19.6355 13.45 19.9355 12.2 20.0355C11.1333 20.1188 10.3333 20.3146 9.8 20.623C9.26667 20.9313 9 21.3521 9 21.8855C9 22.4688 9.23333 22.8896 9.7 23.148C10.1667 23.4063 10.95 23.5605 12.05 23.6105L11.95 25.6105ZM18.95 25.7855L14.825 21.6605L24.375 12.1105C24.7083 11.7771 25.1042 11.6105 25.5625 11.6105C26.0208 11.6105 26.4167 11.7771 26.75 12.1105L28.5 13.8605C28.8333 14.1938 29 14.5896 29 15.048C29 15.5063 28.8333 15.9021 28.5 16.2355L18.95 25.7855ZM14.975 26.6105C14.6917 26.6771 14.4417 26.6021 14.225 26.3855C14.0083 26.1688 13.9333 25.9188 14 25.6355L14.825 21.6605L18.95 25.7855L14.975 26.6105Z" fill="#F8F6FF"/>
</g>
</svg>
