<svg width="74" height="74" viewBox="0 0 74 74" fill="none" xmlns="http://www.w3.org/2000/svg">
<path d="M0 36.8308C0 16.4897 16.4897 0 36.8308 0C57.1719 0 73.6616 16.4897 73.6616 36.8308C73.6616 57.1719 57.1719 73.6616 36.8308 73.6616C16.4897 73.6616 0 57.1719 0 36.8308Z" fill="#86CD58"/>
<path d="M35.2987 24.6346C35.8249 23.2123 37.8366 23.2123 38.3629 24.6346L40.7218 31.0093C41.0526 31.9036 41.7579 32.6089 42.6521 32.9397L49.027 35.2986C50.4491 35.8249 50.4493 37.8366 49.027 38.3628L42.6521 40.7218C41.7579 41.0525 41.0526 41.7578 40.7218 42.652L38.3629 49.0269C37.8366 50.449 35.8249 50.4492 35.2987 49.0269L32.9397 42.652C32.609 41.7578 31.9036 41.0525 31.0094 40.7218L24.6347 38.3628C23.2124 37.8366 23.2124 35.8249 24.6347 35.2986L31.0094 32.9397C31.9036 32.6089 32.609 31.9036 32.9397 31.0093L35.2987 24.6346Z" fill="black"/>
<path fill-rule="evenodd" clip-rule="evenodd" d="M12.3741 34.8411H16.9366C18.0353 34.8411 18.926 35.7318 18.926 36.8305C18.926 37.9292 18.0353 38.8199 16.9366 38.8199H12.3741C13.1643 48.6684 19.77 56.876 28.7548 60.0065L28.7507 60.0004C26.7282 56.9075 25.1901 52.6594 24.2663 47.8132C24.0606 46.7341 24.7687 45.6922 25.848 45.4866C26.9273 45.2808 27.969 45.989 28.1748 47.0684C29.0368 51.5905 30.4311 55.3001 32.0809 57.8229C33.766 60.3999 35.4467 61.3668 36.8308 61.3668C38.2149 61.3668 39.8956 60.3999 41.5808 57.8229C43.2307 55.3001 44.6248 51.5905 45.4869 47.0684C45.6925 45.989 46.7344 45.2808 47.8135 45.4866C48.8928 45.6922 49.6011 46.7341 49.3952 47.8132C48.4716 52.6594 46.9334 56.9075 44.9111 60.0004L44.9068 60.0065C53.8916 56.876 60.4973 48.6684 61.2875 38.8199H56.7251C55.6264 38.8199 54.7356 37.9292 54.7356 36.8305C54.7356 35.7318 55.6264 34.8411 56.7251 34.8411H61.2875C60.4973 24.9926 53.8916 16.7849 44.9068 13.6544L44.9111 13.6606C46.9334 16.7535 48.4716 21.0016 49.3952 25.8477C49.6011 26.927 48.8928 27.9687 47.8135 28.1745C46.7344 28.3802 45.6925 27.6721 45.4869 26.5928C44.6248 22.0705 43.2307 18.3609 41.5808 15.8382C39.8956 13.2612 38.2149 12.2943 36.8308 12.2943C35.4467 12.2943 33.766 13.2612 32.0809 15.8382C30.4311 18.3609 29.0368 22.0705 28.1748 26.5928C27.969 27.6721 26.9273 28.3802 25.848 28.1745C24.7687 27.9687 24.0606 26.927 24.2663 25.8477C25.1901 21.0016 26.7282 16.7535 28.7507 13.6606L28.7548 13.6544C19.77 16.7849 13.1643 24.9927 12.3741 34.8411ZM36.8308 8.31543C21.0824 8.31543 8.31572 21.0821 8.31572 36.8305C8.31572 52.5791 21.0824 65.3456 36.8308 65.3456C52.5794 65.3456 65.3459 52.5791 65.3459 36.8305C65.3459 21.0821 52.5794 8.31543 36.8308 8.31543Z" fill="black"/>
</svg>
