<svg width="212" height="190" viewBox="0 0 212 190" fill="none" xmlns="http://www.w3.org/2000/svg">
<g clip-path="url(#clip0_946_9992)">
<g clip-path="url(#clip1_946_9992)">
<rect width="6.47894" height="128.499" transform="matrix(-1 0 0 1 126.771 0.166016)" fill="#FF3A69"/>
<rect width="6.47894" height="117.809" transform="matrix(-1 0 0 1 110.141 15.9336)" fill="#FF3A69"/>
<rect width="6.47894" height="105.175" transform="matrix(-1 0 0 1 93.5142 29.4297)" fill="#FF3A69"/>
</g>
<g clip-path="url(#clip2_946_9992)">
<path d="M-242.786 122.668L-232.631 122.16V36.0964L-242.786 35.5886V34.7001H-207.751V35.5886L-217.906 36.0964V122.414H-193.28L-186.679 106.674H-185.664V124.191L-203.689 123.557H-242.786V122.668ZM-115.281 124.191C-123.659 124.191 -131.275 122.457 -138.129 118.987C-144.899 115.517 -150.273 110.524 -154.251 104.008C-158.228 97.4921 -160.217 89.8758 -160.217 81.1594C-160.217 72.443 -158.228 64.5305 -154.251 57.422C-150.189 50.2288 -144.519 44.5589 -137.241 40.4123C-129.963 36.181 -121.712 34.0654 -112.488 34.0654C-104.11 34.0654 -96.5361 35.8002 -89.7661 39.2698C-82.9114 42.7395 -77.4954 47.7324 -73.518 54.2485C-69.5407 60.7647 -67.552 68.3809 -67.552 77.0974C-67.552 85.8138 -69.583 93.7685 -73.645 100.962C-77.6224 108.07 -83.25 113.74 -90.5277 117.971C-97.8055 122.118 -106.056 124.191 -115.281 124.191ZM-148.538 69.3541C-148.538 77.5628 -146.634 85.6022 -142.826 93.4723C-138.933 101.343 -133.729 107.774 -127.213 112.767C-120.697 117.76 -113.63 120.256 -106.014 120.256C-96.8746 120.256 -90.1469 117.633 -85.831 112.386C-81.4305 107.055 -79.2303 99.2269 -79.2303 88.9026C-79.2303 80.6939 -81.1343 72.6545 -84.9425 64.7844C-88.7506 56.8296 -93.955 50.3981 -100.556 45.4898C-107.072 40.4969 -114.138 38.0005 -121.754 38.0005C-130.894 38.0005 -137.664 40.6662 -142.065 45.9976C-146.38 51.2443 -148.538 59.0299 -148.538 69.3541ZM-7.34371 124.191C-10.1363 124.191 -12.929 124.107 -15.7216 123.937C-18.4296 123.853 -20.6722 123.726 -22.4493 123.557H-39.586V122.668L-29.4309 122.16V36.0964L-39.586 35.5886V34.7001H-22.8301C-21.9839 34.7001 -20.1221 34.6155 -17.2449 34.4462C-11.9135 34.1923 -8.99391 34.0654 -8.48616 34.0654C1.75351 34.0654 9.62366 35.5886 15.1243 38.6352C20.7096 41.597 23.5022 46.8015 23.5022 54.2485C23.5022 60.4262 21.3443 65.4191 17.0284 69.2272C12.7971 72.9507 6.78871 75.3625 -0.996816 76.4627C9.24284 77.3089 16.7322 79.7207 21.4712 83.6981C26.2948 87.5909 28.7067 93.1762 28.7067 100.454C28.7067 108.747 25.4909 114.798 19.0594 118.606C12.7125 122.33 3.91145 124.191 -7.34371 124.191ZM-14.7061 122.668C-12.4212 122.922 -10.3902 123.049 -8.61309 123.049C-1.67382 123.049 3.86914 121.272 8.01578 117.717C12.1624 114.163 14.2357 108.366 14.2357 100.327C14.2357 84.9252 6.0694 77.2243 -10.2633 77.2243H-11.5327C-12.802 77.2243 -13.8599 77.182 -14.7061 77.0974V122.668ZM-12.0404 76.0819C-5.69352 76.0819 -0.573692 74.3047 3.31907 70.7505C7.29646 67.1962 9.28516 61.8225 9.28516 54.6293C9.28516 48.4517 7.46571 43.6704 3.82682 40.2854C0.272563 36.9003 -4.67802 35.2078 -11.0249 35.2078L-14.7061 35.3348V76.0819H-12.0404ZM104.654 124.191C96.2763 124.191 88.66 122.457 81.8054 118.987C75.0354 115.517 69.6617 110.524 65.6843 104.008C61.7069 97.4921 59.7182 89.8758 59.7182 81.1594C59.7182 72.443 61.7069 64.5305 65.6843 57.422C69.7463 50.2288 75.4162 44.5589 82.694 40.4123C89.9717 36.181 98.2227 34.0654 107.447 34.0654C115.825 34.0654 123.399 35.8002 130.169 39.2698C137.023 42.7395 142.439 47.7324 146.417 54.2485C150.394 60.7647 152.383 68.3809 152.383 77.0974C152.383 85.8138 150.352 93.7685 146.29 100.962C142.312 108.07 136.685 113.74 129.407 117.971C122.129 122.118 113.878 124.191 104.654 124.191ZM71.3965 69.3541C71.3965 77.5628 73.3005 85.6022 77.1087 93.4723C81.0015 101.343 86.2059 107.774 92.7221 112.767C99.2382 117.76 106.304 120.256 113.921 120.256C123.06 120.256 129.788 117.633 134.104 112.386C138.504 107.055 140.705 99.2269 140.705 88.9026C140.705 80.6939 138.801 72.6545 134.992 64.7844C131.184 56.8296 125.98 50.3981 119.379 45.4898C112.863 40.4969 105.797 38.0005 98.1804 38.0005C89.0409 38.0005 82.2708 40.6662 77.8703 45.9976C73.5544 51.2443 71.3965 59.0299 71.3965 69.3541ZM188.996 44.9821C186.541 41.8509 182.818 38.5928 177.825 35.2078V34.7001H200.166C201.774 38.4236 203.382 41.3432 204.99 43.4588L248.529 101.596V36.0964L238.374 35.5886V34.7001H260.081V35.5886L249.926 36.0964V123.557H248.022L192.804 50.0596V122.16L202.959 122.668V123.557H181.252V122.668L191.407 122.16V48.1555L188.996 44.9821Z" fill="#1D3200"/>
</g>
<g clip-path="url(#clip3_946_9992)">
<rect width="6.47894" height="128.499" transform="matrix(-1 0 0 1 126.771 0.162109)" fill="#FF3A69"/>
<rect width="6.47894" height="117.809" transform="matrix(-1 0 0 1 110.141 15.9336)" fill="#FF3A69"/>
<rect width="6.47894" height="105.175" transform="matrix(-1 0 0 1 93.5142 29.4297)" fill="#FF3A69"/>
</g>
</g>
<path d="M35.1634 151.644H27.9624V138.838H29.9194V149.915H35.1634V151.644ZM43.7793 151.131C43.07 151.536 42.1327 151.739 40.9673 151.739C39.4727 151.739 38.282 151.289 37.3953 150.39C36.5087 149.491 36.0653 148.313 36.0653 146.856C36.0653 145.311 36.4707 144.101 37.2813 143.227C38.092 142.34 39.1243 141.897 40.3783 141.897C41.607 141.897 42.5823 142.283 43.3043 143.056C44.0263 143.816 44.3873 144.918 44.3873 146.362C44.3873 146.755 44.3493 147.166 44.2733 147.597H37.9463C38.073 148.433 38.4277 149.073 39.0103 149.516C39.593 149.959 40.3277 150.181 41.2143 150.181C42.2403 150.181 43.0953 149.94 43.7793 149.459V151.131ZM40.4163 143.436C39.783 143.436 39.2383 143.67 38.7823 144.139C38.3263 144.595 38.0413 145.26 37.9273 146.134H42.5823V145.792C42.557 145.07 42.3607 144.5 41.9933 144.082C41.626 143.651 41.1003 143.436 40.4163 143.436ZM49.2777 150.257C49.8857 150.257 50.3607 150.092 50.7027 149.763C51.0574 149.421 51.2347 148.978 51.2347 148.433V147.35H49.7907C49.0814 147.35 48.5431 147.489 48.1757 147.768C47.8211 148.047 47.6437 148.401 47.6437 148.832C47.6437 149.275 47.7831 149.624 48.0617 149.877C48.3404 150.13 48.7457 150.257 49.2777 150.257ZM51.2917 150.504C50.7977 151.315 49.9301 151.72 48.6887 151.72C47.7767 151.72 47.0421 151.46 46.4847 150.941C45.9401 150.409 45.6677 149.738 45.6677 148.927C45.6677 148.002 46.0161 147.287 46.7127 146.78C47.4094 146.261 48.3847 146.001 49.6387 146.001H51.2347V145.45C51.2347 144.791 51.0764 144.297 50.7597 143.968C50.4431 143.626 49.9174 143.455 49.1827 143.455C48.1567 143.455 47.2257 143.74 46.3897 144.31V142.505C47.1371 142.074 48.1251 141.859 49.3537 141.859C51.8744 141.859 53.1347 143.081 53.1347 145.526V151.644H51.2917V150.504ZM56.6122 146.913C56.6122 147.876 56.8465 148.655 57.3152 149.25C57.7965 149.845 58.3982 150.143 59.1202 150.143C59.8549 150.143 60.4755 149.864 60.9822 149.307C61.4889 148.75 61.7422 147.901 61.7422 146.761C61.7422 145.659 61.4762 144.842 60.9442 144.31C60.4249 143.778 59.8359 143.512 59.1772 143.512C58.4299 143.512 57.8155 143.81 57.3342 144.405C56.8529 144.988 56.6122 145.824 56.6122 146.913ZM63.6232 151.644H61.7422V150.181C61.0709 151.245 60.0892 151.777 58.7972 151.777C57.5305 151.777 56.5299 151.302 55.7952 150.352C55.0605 149.389 54.6932 148.23 54.6932 146.875C54.6932 145.368 55.0795 144.158 55.8522 143.246C56.6249 142.334 57.6192 141.878 58.8352 141.878C60.0892 141.878 61.0582 142.41 61.7422 143.474V138.211H63.6232V151.644ZM73.0107 151.131C72.3013 151.536 71.364 151.739 70.1987 151.739C68.704 151.739 67.5133 151.289 66.6267 150.39C65.74 149.491 65.2967 148.313 65.2967 146.856C65.2967 145.311 65.702 144.101 66.5127 143.227C67.3233 142.34 68.3557 141.897 69.6097 141.897C70.8383 141.897 71.8137 142.283 72.5357 143.056C73.2577 143.816 73.6187 144.918 73.6187 146.362C73.6187 146.755 73.5807 147.166 73.5047 147.597H67.1777C67.3043 148.433 67.659 149.073 68.2417 149.516C68.8243 149.959 69.559 150.181 70.4457 150.181C71.4717 150.181 72.3267 149.94 73.0107 149.459V151.131ZM69.6477 143.436C69.0143 143.436 68.4697 143.67 68.0137 144.139C67.5577 144.595 67.2727 145.26 67.1587 146.134H71.8137V145.792C71.7883 145.07 71.592 144.5 71.2247 144.082C70.8573 143.651 70.3317 143.436 69.6477 143.436ZM77.2551 151.644H75.3931V142.011H77.2551V143.702C77.7238 142.511 78.5661 141.916 79.7821 141.916C79.9594 141.916 80.1558 141.935 80.3711 141.973V143.797C80.1051 143.683 79.8074 143.626 79.4781 143.626C78.8321 143.626 78.3001 143.911 77.8821 144.481C77.4641 145.051 77.2551 145.729 77.2551 146.514V151.644ZM87.4366 148.984C87.4366 149.845 87.1326 150.523 86.5246 151.017C85.9166 151.498 85.0932 151.739 84.0546 151.739C82.9146 151.739 81.9646 151.549 81.2046 151.169V149.402C82.0912 149.947 83.0096 150.219 83.9596 150.219C84.4536 150.219 84.8336 150.118 85.0996 149.915C85.3782 149.712 85.5176 149.446 85.5176 149.117C85.5176 148.838 85.4099 148.591 85.1946 148.376C84.9792 148.148 84.7576 147.983 84.5296 147.882C84.3142 147.768 83.9406 147.597 83.4086 147.369C81.9012 146.748 81.1476 145.836 81.1476 144.633C81.1476 143.784 81.4642 143.119 82.0976 142.638C82.7309 142.157 83.5226 141.916 84.4726 141.916C85.5112 141.916 86.3219 142.055 86.9046 142.334V144.025C86.2839 143.658 85.4859 143.474 84.5106 143.474C84.0672 143.474 83.7126 143.575 83.4466 143.778C83.1932 143.981 83.0666 144.247 83.0666 144.576C83.0666 144.665 83.0729 144.753 83.0856 144.842C83.1109 144.918 83.1489 145 83.1996 145.089C83.2502 145.165 83.2946 145.235 83.3326 145.298C83.3832 145.349 83.4592 145.406 83.5606 145.469C83.6619 145.532 83.7379 145.589 83.7886 145.64C83.8519 145.678 83.9469 145.729 84.0736 145.792C84.2129 145.855 84.3142 145.906 84.3776 145.944C84.4409 145.969 84.5486 146.02 84.7006 146.096C84.8652 146.159 84.9792 146.204 85.0426 146.229C85.7899 146.558 86.3726 146.932 86.7906 147.35C87.2212 147.755 87.4366 148.3 87.4366 148.984ZM96.9165 151.644H95.0545V145.564C95.0545 144.905 94.8835 144.399 94.5415 144.044C94.2122 143.677 93.7752 143.493 93.2305 143.493C92.5972 143.493 92.0335 143.734 91.5395 144.215C91.0582 144.696 90.8175 145.431 90.8175 146.419V151.644H88.9555V138.211H90.8175V143.664C91.3622 142.473 92.3565 141.878 93.8005 141.878C94.7379 141.878 95.4915 142.169 96.0615 142.752C96.6315 143.335 96.9165 144.145 96.9165 145.184V151.644ZM100.959 151.644H99.0784V142.011H100.959V151.644ZM101.187 139.066C101.187 139.383 101.073 139.655 100.845 139.883C100.617 140.111 100.339 140.225 100.009 140.225C99.68 140.225 99.4014 140.117 99.1734 139.902C98.958 139.674 98.8504 139.395 98.8504 139.066C98.8504 138.737 98.958 138.458 99.1734 138.23C99.4014 138.002 99.68 137.888 100.009 137.888C100.339 137.888 100.617 138.002 100.845 138.23C101.073 138.458 101.187 138.737 101.187 139.066ZM105.104 155.33H103.242V142.011H105.104V143.493C105.762 142.416 106.75 141.878 108.068 141.878C109.334 141.878 110.335 142.34 111.07 143.265C111.804 144.177 112.172 145.342 112.172 146.761C112.172 148.218 111.792 149.421 111.032 150.371C110.284 151.308 109.284 151.777 108.03 151.777C106.75 151.777 105.775 151.245 105.104 150.181V155.33ZM105.104 146.799C105.104 147.914 105.363 148.75 105.883 149.307C106.415 149.864 107.016 150.143 107.688 150.143C108.435 150.143 109.049 149.852 109.531 149.269C110.012 148.674 110.253 147.844 110.253 146.78C110.253 145.779 110.018 144.988 109.55 144.405C109.081 143.81 108.486 143.512 107.764 143.512C107.042 143.512 106.415 143.778 105.883 144.31C105.363 144.829 105.104 145.659 105.104 146.799ZM125.291 143.284C126.089 144.209 126.488 145.393 126.488 146.837C126.488 148.281 126.076 149.472 125.253 150.409C124.442 151.346 123.321 151.815 121.89 151.815C120.471 151.815 119.356 151.353 118.546 150.428C117.735 149.503 117.33 148.332 117.33 146.913C117.33 145.469 117.748 144.272 118.584 143.322C119.42 142.359 120.522 141.878 121.89 141.878C123.359 141.878 124.493 142.347 125.291 143.284ZM119.268 146.856C119.268 147.806 119.502 148.61 119.971 149.269C120.439 149.915 121.079 150.238 121.89 150.238C122.751 150.238 123.403 149.921 123.847 149.288C124.303 148.655 124.531 147.85 124.531 146.875C124.531 145.874 124.315 145.057 123.885 144.424C123.454 143.778 122.783 143.455 121.871 143.455C121.047 143.455 120.408 143.784 119.952 144.443C119.496 145.089 119.268 145.893 119.268 146.856ZM132.861 143.455H130.828V151.644H128.966V143.455H127.427V142.011H128.966V141.27C128.966 140.269 129.232 139.484 129.764 138.914C130.309 138.331 131.069 138.04 132.044 138.04C132.399 138.04 132.76 138.091 133.127 138.192V139.826C132.836 139.699 132.532 139.636 132.215 139.636C131.291 139.636 130.828 140.187 130.828 141.289V142.011H132.861V143.455ZM143.11 151.644H138.189V138.838H142.388C143.73 138.838 144.788 139.155 145.561 139.788C146.333 140.409 146.72 141.232 146.72 142.258C146.72 142.967 146.517 143.588 146.112 144.12C145.719 144.652 145.212 144.994 144.592 145.146C145.288 145.273 145.871 145.596 146.34 146.115C146.821 146.634 147.062 147.331 147.062 148.205C147.062 149.218 146.713 150.048 146.017 150.694C145.333 151.327 144.364 151.644 143.11 151.644ZM142.236 140.453H140.146V144.386H141.913C142.863 144.386 143.566 144.196 144.022 143.816C144.49 143.423 144.725 142.917 144.725 142.296C144.725 141.751 144.516 141.308 144.098 140.966C143.692 140.624 143.072 140.453 142.236 140.453ZM142.464 145.982H140.146V150.029H142.654C144.262 150.029 145.067 149.364 145.067 148.034C145.067 147.388 144.845 146.888 144.402 146.533C143.971 146.166 143.325 145.982 142.464 145.982ZM150.597 151.644H148.735V142.011H150.597V143.702C151.065 142.511 151.908 141.916 153.124 141.916C153.301 141.916 153.497 141.935 153.713 141.973V143.797C153.447 143.683 153.149 143.626 152.82 143.626C152.174 143.626 151.642 143.911 151.224 144.481C150.806 145.051 150.597 145.729 150.597 146.514V151.644ZM157.871 150.257C158.479 150.257 158.954 150.092 159.296 149.763C159.651 149.421 159.828 148.978 159.828 148.433V147.35H158.384C157.675 147.35 157.136 147.489 156.769 147.768C156.414 148.047 156.237 148.401 156.237 148.832C156.237 149.275 156.376 149.624 156.655 149.877C156.934 150.13 157.339 150.257 157.871 150.257ZM159.885 150.504C159.391 151.315 158.523 151.72 157.282 151.72C156.37 151.72 155.635 151.46 155.078 150.941C154.533 150.409 154.261 149.738 154.261 148.927C154.261 148.002 154.609 147.287 155.306 146.78C156.003 146.261 156.978 146.001 158.232 146.001H159.828V145.45C159.828 144.791 159.67 144.297 159.353 143.968C159.036 143.626 158.511 143.455 157.776 143.455C156.75 143.455 155.819 143.74 154.983 144.31V142.505C155.73 142.074 156.718 141.859 157.947 141.859C160.468 141.859 161.728 143.081 161.728 145.526V151.644H159.885V150.504ZM168.417 151.644H166.289L162.869 142.011H164.826L166.137 146.077C166.441 147.014 166.694 147.825 166.897 148.509C167.112 149.193 167.245 149.643 167.296 149.858L167.372 150.181C167.486 149.56 167.904 148.192 168.626 146.077L169.975 142.011H171.913L168.417 151.644ZM180.342 151.131C179.633 151.536 178.696 151.739 177.53 151.739C176.036 151.739 174.845 151.289 173.958 150.39C173.072 149.491 172.628 148.313 172.628 146.856C172.628 145.311 173.034 144.101 173.844 143.227C174.655 142.34 175.687 141.897 176.941 141.897C178.17 141.897 179.145 142.283 179.867 143.056C180.589 143.816 180.95 144.918 180.95 146.362C180.95 146.755 180.912 147.166 180.836 147.597H174.509C174.636 148.433 174.991 149.073 175.573 149.516C176.156 149.959 176.891 150.181 177.777 150.181C178.803 150.181 179.658 149.94 180.342 149.459V151.131ZM176.979 143.436C176.346 143.436 175.801 143.67 175.345 144.139C174.889 144.595 174.604 145.26 174.49 146.134H179.145V145.792C179.12 145.07 178.924 144.5 178.556 144.082C178.189 143.651 177.663 143.436 176.979 143.436ZM182.896 154H181.262L183.086 149.554H185.385L182.896 154ZM23.3512 169.396C24.4025 170.587 24.9282 172.183 24.9282 174.184C24.9282 176.185 24.3962 177.788 23.3322 178.991C22.2809 180.194 20.8559 180.796 19.0572 180.796C17.2712 180.796 15.8399 180.194 14.7632 178.991C13.6992 177.788 13.1672 176.185 13.1672 174.184C13.1672 172.195 13.6992 170.599 14.7632 169.396C15.8272 168.193 17.2522 167.591 19.0382 167.591C20.8622 167.591 22.2999 168.193 23.3512 169.396ZM16.2262 170.707C15.5549 171.556 15.2192 172.715 15.2192 174.184C15.2192 175.653 15.5675 176.819 16.2642 177.68C16.9609 178.541 17.8919 178.972 19.0572 178.972C20.2605 178.972 21.1979 178.548 21.8692 177.699C22.5405 176.85 22.8762 175.679 22.8762 174.184C22.8762 172.702 22.5342 171.537 21.8502 170.688C21.1789 169.839 20.2415 169.415 19.0382 169.415C17.8475 169.415 16.9102 169.846 16.2262 170.707ZM28.556 184.33H26.694V171.011H28.556V172.493C29.2147 171.416 30.2027 170.878 31.52 170.878C32.7867 170.878 33.7874 171.34 34.522 172.265C35.2567 173.177 35.624 174.342 35.624 175.761C35.624 177.218 35.244 178.421 34.484 179.371C33.7367 180.308 32.736 180.777 31.482 180.777C30.2027 180.777 29.2274 180.245 28.556 179.181V184.33ZM28.556 175.799C28.556 176.914 28.8157 177.75 29.335 178.307C29.867 178.864 30.4687 179.143 31.14 179.143C31.8874 179.143 32.5017 178.852 32.983 178.269C33.4644 177.674 33.705 176.844 33.705 175.78C33.705 174.779 33.4707 173.988 33.002 173.405C32.5334 172.81 31.938 172.512 31.216 172.512C30.494 172.512 29.867 172.778 29.335 173.31C28.8157 173.829 28.556 174.659 28.556 175.799ZM44.4795 180.131C43.7702 180.536 42.8328 180.739 41.6675 180.739C40.1728 180.739 38.9822 180.289 38.0955 179.39C37.2088 178.491 36.7655 177.313 36.7655 175.856C36.7655 174.311 37.1708 173.101 37.9815 172.227C38.7922 171.34 39.8245 170.897 41.0785 170.897C42.3072 170.897 43.2825 171.283 44.0045 172.056C44.7265 172.816 45.0875 173.918 45.0875 175.362C45.0875 175.755 45.0495 176.166 44.9735 176.597H38.6465C38.7732 177.433 39.1278 178.073 39.7105 178.516C40.2932 178.959 41.0278 179.181 41.9145 179.181C42.9405 179.181 43.7955 178.94 44.4795 178.459V180.131ZM41.1165 172.436C40.4832 172.436 39.9385 172.67 39.4825 173.139C39.0265 173.595 38.7415 174.26 38.6275 175.134H43.2825V174.792C43.2572 174.07 43.0608 173.5 42.6935 173.082C42.3262 172.651 41.8005 172.436 41.1165 172.436ZM54.8229 180.644H52.9609V174.564C52.9609 173.893 52.7899 173.38 52.4479 173.025C52.1186 172.67 51.6753 172.493 51.1179 172.493C50.4593 172.493 49.8956 172.753 49.4269 173.272C48.9583 173.779 48.7239 174.494 48.7239 175.419V180.644H46.8619V171.011H48.7239V172.664C49.2939 171.473 50.2946 170.878 51.7259 170.878C52.6759 170.878 53.4296 171.169 53.9869 171.752C54.5443 172.335 54.8229 173.126 54.8229 174.127V180.644ZM61.2408 176.369H56.6048V174.773H61.2408V176.369ZM76.3763 180.644H74.5143V174.564C74.5143 173.183 73.957 172.493 72.8423 172.493C72.285 172.493 71.7847 172.74 71.3413 173.234C70.9107 173.728 70.6953 174.456 70.6953 175.419V180.644H68.8333V174.564C68.8333 173.183 68.2697 172.493 67.1423 172.493C66.5977 172.493 66.1037 172.74 65.6603 173.234C65.217 173.728 64.9953 174.456 64.9953 175.419V180.644H63.1333V171.011H64.9953V172.55C65.54 171.435 66.4457 170.878 67.7123 170.878C69.1563 170.878 70.081 171.499 70.4863 172.74C70.7523 172.145 71.1387 171.689 71.6453 171.372C72.152 171.043 72.722 170.878 73.3553 170.878C74.3433 170.878 75.0907 171.169 75.5973 171.752C76.1167 172.335 76.3763 173.139 76.3763 174.165V180.644ZM80.4438 180.644H78.5628V171.011H80.4438V180.644ZM80.6718 168.066C80.6718 168.383 80.5578 168.655 80.3298 168.883C80.1018 169.111 79.8232 169.225 79.4938 169.225C79.1645 169.225 78.8858 169.117 78.6578 168.902C78.4425 168.674 78.3348 168.395 78.3348 168.066C78.3348 167.737 78.4425 167.458 78.6578 167.23C78.8858 167.002 79.1645 166.888 79.4938 166.888C79.8232 166.888 80.1018 167.002 80.3298 167.23C80.5578 167.458 80.6718 167.737 80.6718 168.066ZM90.6871 180.644H88.8251V174.564C88.8251 173.893 88.6541 173.38 88.3121 173.025C87.9827 172.67 87.5394 172.493 86.9821 172.493C86.3234 172.493 85.7597 172.753 85.2911 173.272C84.8224 173.779 84.5881 174.494 84.5881 175.419V180.644H82.7261V171.011H84.5881V172.664C85.1581 171.473 86.1587 170.878 87.5901 170.878C88.5401 170.878 89.2937 171.169 89.8511 171.752C90.4084 172.335 90.6871 173.126 90.6871 174.127V180.644ZM94.1599 175.913C94.1599 176.876 94.3942 177.655 94.8629 178.25C95.3442 178.845 95.9459 179.143 96.6679 179.143C97.4026 179.143 98.0232 178.864 98.5299 178.307C99.0366 177.75 99.2899 176.901 99.2899 175.761C99.2899 174.659 99.0239 173.842 98.4919 173.31C97.9726 172.778 97.3836 172.512 96.7249 172.512C95.9776 172.512 95.3632 172.81 94.8819 173.405C94.4006 173.988 94.1599 174.824 94.1599 175.913ZM101.171 180.644H99.2899V179.181C98.6186 180.245 97.6369 180.777 96.3449 180.777C95.0782 180.777 94.0776 180.302 93.3429 179.352C92.6082 178.389 92.2409 177.23 92.2409 175.875C92.2409 174.368 92.6272 173.158 93.3999 172.246C94.1726 171.334 95.1669 170.878 96.3829 170.878C97.6369 170.878 98.6059 171.41 99.2899 172.474V167.211H101.171V180.644ZM110.558 180.131C109.849 180.536 108.912 180.739 107.746 180.739C106.252 180.739 105.061 180.289 104.174 179.39C103.288 178.491 102.844 177.313 102.844 175.856C102.844 174.311 103.25 173.101 104.06 172.227C104.871 171.34 105.903 170.897 107.157 170.897C108.386 170.897 109.361 171.283 110.083 172.056C110.805 172.816 111.166 173.918 111.166 175.362C111.166 175.755 111.128 176.166 111.052 176.597H104.725C104.852 177.433 105.207 178.073 105.789 178.516C106.372 178.959 107.107 179.181 107.993 179.181C109.019 179.181 109.874 178.94 110.558 178.459V180.131ZM107.195 172.436C106.562 172.436 106.017 172.67 105.561 173.139C105.105 173.595 104.82 174.26 104.706 175.134H109.361V174.792C109.336 174.07 109.14 173.5 108.772 173.082C108.405 172.651 107.879 172.436 107.195 172.436ZM114.328 175.913C114.328 176.876 114.562 177.655 115.031 178.25C115.512 178.845 116.114 179.143 116.836 179.143C117.57 179.143 118.191 178.864 118.698 178.307C119.204 177.75 119.458 176.901 119.458 175.761C119.458 174.659 119.192 173.842 118.66 173.31C118.14 172.778 117.551 172.512 116.893 172.512C116.145 172.512 115.531 172.81 115.05 173.405C114.568 173.988 114.328 174.824 114.328 175.913ZM121.339 180.644H119.458V179.181C118.786 180.245 117.805 180.777 116.513 180.777C115.246 180.777 114.245 180.302 113.511 179.352C112.776 178.389 112.409 177.23 112.409 175.875C112.409 174.368 112.795 173.158 113.568 172.246C114.34 171.334 115.335 170.878 116.551 170.878C117.805 170.878 118.774 171.41 119.458 172.474V167.211H121.339V180.644ZM129.594 180.644H127.637V167.838H129.955L133.109 173.196C133.692 174.197 134.217 175.121 134.686 175.97C135.167 176.819 135.497 177.414 135.674 177.756L135.94 178.288C135.864 177.135 135.826 175.444 135.826 173.215V167.838H137.783V180.644H135.465L132.292 175.305C131.722 174.342 131.196 173.437 130.715 172.588C130.246 171.727 129.917 171.106 129.727 170.726L129.442 170.175C129.543 171.442 129.594 173.145 129.594 175.286V180.644ZM143.173 179.257C143.781 179.257 144.256 179.092 144.598 178.763C144.953 178.421 145.13 177.978 145.13 177.433V176.35H143.686C142.977 176.35 142.438 176.489 142.071 176.768C141.716 177.047 141.539 177.401 141.539 177.832C141.539 178.275 141.678 178.624 141.957 178.877C142.236 179.13 142.641 179.257 143.173 179.257ZM145.187 179.504C144.693 180.315 143.825 180.72 142.584 180.72C141.672 180.72 140.937 180.46 140.38 179.941C139.835 179.409 139.563 178.738 139.563 177.927C139.563 177.002 139.911 176.287 140.608 175.78C141.305 175.261 142.28 175.001 143.534 175.001H145.13V174.45C145.13 173.791 144.972 173.297 144.655 172.968C144.338 172.626 143.813 172.455 143.078 172.455C142.052 172.455 141.121 172.74 140.285 173.31V171.505C141.032 171.074 142.02 170.859 143.249 170.859C145.77 170.859 147.03 172.081 147.03 174.526V180.644H145.187V179.504ZM154.174 180.397C153.756 180.625 153.243 180.739 152.635 180.739C150.647 180.739 149.652 179.732 149.652 177.718V172.455H148.151V171.011H149.652V168.655H151.533V171.011H154.06V172.455H151.533V177.756C151.533 178.681 151.977 179.143 152.863 179.143C153.383 179.143 153.82 179.004 154.174 178.725V180.397ZM157.766 180.644H155.885V171.011H157.766V180.644ZM157.994 168.066C157.994 168.383 157.88 168.655 157.652 168.883C157.424 169.111 157.145 169.225 156.816 169.225C156.486 169.225 156.208 169.117 155.98 168.902C155.764 168.674 155.657 168.395 155.657 168.066C155.657 167.737 155.764 167.458 155.98 167.23C156.208 167.002 156.486 166.888 156.816 166.888C157.145 166.888 157.424 167.002 157.652 167.23C157.88 167.458 157.994 167.737 157.994 168.066ZM167.477 172.284C168.275 173.209 168.674 174.393 168.674 175.837C168.674 177.281 168.262 178.472 167.439 179.409C166.628 180.346 165.507 180.815 164.076 180.815C162.657 180.815 161.543 180.353 160.732 179.428C159.921 178.503 159.516 177.332 159.516 175.913C159.516 174.469 159.934 173.272 160.77 172.322C161.606 171.359 162.708 170.878 164.076 170.878C165.545 170.878 166.679 171.347 167.477 172.284ZM161.454 175.856C161.454 176.806 161.688 177.61 162.157 178.269C162.626 178.915 163.265 179.238 164.076 179.238C164.937 179.238 165.59 178.921 166.033 178.288C166.489 177.655 166.717 176.85 166.717 175.875C166.717 174.874 166.502 174.057 166.071 173.424C165.64 172.778 164.969 172.455 164.057 172.455C163.234 172.455 162.594 172.784 162.138 173.443C161.682 174.089 161.454 174.893 161.454 175.856ZM178.316 180.644H176.454V174.564C176.454 173.893 176.283 173.38 175.941 173.025C175.611 172.67 175.168 172.493 174.611 172.493C173.952 172.493 173.388 172.753 172.92 173.272C172.451 173.779 172.217 174.494 172.217 175.419V180.644H170.355V171.011H172.217V172.664C172.787 171.473 173.787 170.878 175.219 170.878C176.169 170.878 176.922 171.169 177.48 171.752C178.037 172.335 178.316 173.126 178.316 174.127V180.644ZM183.517 179.257C184.125 179.257 184.6 179.092 184.942 178.763C185.297 178.421 185.474 177.978 185.474 177.433V176.35H184.03C183.321 176.35 182.783 176.489 182.415 176.768C182.061 177.047 181.883 177.401 181.883 177.832C181.883 178.275 182.023 178.624 182.301 178.877C182.58 179.13 182.985 179.257 183.517 179.257ZM185.531 179.504C185.037 180.315 184.17 180.72 182.928 180.72C182.016 180.72 181.282 180.46 180.724 179.941C180.18 179.409 179.907 178.738 179.907 177.927C179.907 177.002 180.256 176.287 180.952 175.78C181.649 175.261 182.624 175.001 183.878 175.001H185.474V174.45C185.474 173.791 185.316 173.297 184.999 172.968C184.683 172.626 184.157 172.455 183.422 172.455C182.396 172.455 181.465 172.74 180.629 173.31V171.505C181.377 171.074 182.365 170.859 183.593 170.859C186.114 170.859 187.374 172.081 187.374 174.526V180.644H185.531V179.504ZM191.422 180.644H189.541V167.211H191.422V180.644ZM199.727 177.984C199.727 178.845 199.423 179.523 198.815 180.017C198.207 180.498 197.384 180.739 196.345 180.739C195.205 180.739 194.255 180.549 193.495 180.169V178.402C194.382 178.947 195.3 179.219 196.25 179.219C196.744 179.219 197.124 179.118 197.39 178.915C197.669 178.712 197.808 178.446 197.808 178.117C197.808 177.838 197.7 177.591 197.485 177.376C197.27 177.148 197.048 176.983 196.82 176.882C196.605 176.768 196.231 176.597 195.699 176.369C194.192 175.748 193.438 174.836 193.438 173.633C193.438 172.784 193.755 172.119 194.388 171.638C195.021 171.157 195.813 170.916 196.763 170.916C197.802 170.916 198.612 171.055 199.195 171.334V173.025C198.574 172.658 197.776 172.474 196.801 172.474C196.358 172.474 196.003 172.575 195.737 172.778C195.484 172.981 195.357 173.247 195.357 173.576C195.357 173.665 195.363 173.753 195.376 173.842C195.401 173.918 195.439 174 195.49 174.089C195.541 174.165 195.585 174.235 195.623 174.298C195.674 174.349 195.75 174.406 195.851 174.469C195.952 174.532 196.028 174.589 196.079 174.64C196.142 174.678 196.237 174.729 196.364 174.792C196.503 174.855 196.605 174.906 196.668 174.944C196.731 174.969 196.839 175.02 196.991 175.096C197.156 175.159 197.27 175.204 197.333 175.229C198.08 175.558 198.663 175.932 199.081 176.35C199.512 176.755 199.727 177.3 199.727 177.984Z" fill="#1D3200"/>
<defs>
<clipPath id="clip0_946_9992">
<rect width="93.9182" height="128.644" fill="white" transform="translate(59.3643)"/>
</clipPath>
<clipPath id="clip1_946_9992">
<rect width="40.8173" height="128.499" fill="white" transform="translate(85.8452 0.166016)"/>
</clipPath>
<clipPath id="clip2_946_9992">
<rect width="109.483" height="110.085" fill="white" transform="translate(51.3423 25.4844)"/>
</clipPath>
<clipPath id="clip3_946_9992">
<rect width="40.8018" height="100.435" fill="white" transform="translate(85.8682 0.136719)"/>
</clipPath>
</defs>
</svg>
