<svg width="41" height="58" viewBox="0 0 41 58" fill="none" xmlns="http://www.w3.org/2000/svg">
<g clip-path="url(#clip0_852_13754)">
<g clip-path="url(#clip1_852_13754)">
<rect width="2.65708" height="37.7001" transform="matrix(-1 0 0 1 15.502 11.4108)" fill="#FF3A69"/>
<rect width="2.65708" height="43.399" transform="matrix(-1 0 0 1 21.6992 5.71191)" fill="#FF3A69"/>
</g>
<rect width="2.66974" height="38.7491" transform="matrix(-1 0 0 1 27.459 10.3513)" fill="#FF3A69"/>
<g clip-path="url(#clip2_852_13754)">
<path d="M-108.044 47.0139L-104.306 46.827V15.1482L-108.044 14.9613V14.6343H-95.1484V14.9613L-98.8863 15.1482V46.9204H-89.8219L-87.3923 41.1267H-87.0185V47.5746L-93.6533 47.3409H-108.044V47.0139ZM-61.1116 47.5746C-64.1954 47.5746 -66.9988 46.936 -69.5219 45.6589C-72.0138 44.3818 -73.9918 42.544 -75.4558 40.1455C-76.9198 37.747 -77.6518 34.9435 -77.6518 31.7352C-77.6518 28.5268 -76.9198 25.6144 -75.4558 22.9978C-73.9606 20.3501 -71.8736 18.2631 -69.1948 16.7368C-66.516 15.1794 -63.4789 14.4006 -60.0837 14.4006C-56.9999 14.4006 -54.212 15.0392 -51.7201 16.3163C-49.197 17.5934 -47.2035 19.4312 -45.7394 21.8297C-44.2754 24.2282 -43.5434 27.0316 -43.5434 30.24C-43.5434 33.4484 -44.291 36.3764 -45.7862 39.0241C-47.2502 41.6406 -49.3216 43.7276 -52.0004 45.2851C-54.6793 46.8114 -57.7163 47.5746 -61.1116 47.5746ZM-73.3532 27.3899C-73.3532 30.4113 -72.6524 33.3705 -71.2507 36.2674C-69.8178 39.1643 -67.9021 41.5316 -65.5036 43.3694C-63.1051 45.2072 -60.5042 46.1261 -57.7007 46.1261C-54.3366 46.1261 -51.8603 45.1605 -50.2717 43.2292C-48.6519 41.2668 -47.842 38.3855 -47.842 34.5853C-47.842 31.5639 -48.5429 28.6047 -49.9446 25.7078C-51.3463 22.7798 -53.262 20.4124 -55.6916 18.6058C-58.0901 16.768 -60.6911 15.8491 -63.4945 15.8491C-66.8586 15.8491 -69.3506 16.8303 -70.9703 18.7927C-72.5589 20.7239 -73.3532 23.5897 -73.3532 27.3899ZM-21.3817 47.5746C-22.4096 47.5746 -23.4376 47.5434 -24.4655 47.4811C-25.4623 47.45 -26.2877 47.4032 -26.9418 47.3409H-33.2496V47.0139L-29.5117 46.827V15.1482L-33.2496 14.9613V14.6343H-27.082C-26.7705 14.6343 -26.0852 14.6031 -25.0262 14.5408C-23.0638 14.4474 -21.9891 14.4006 -21.8022 14.4006C-18.0332 14.4006 -15.1363 14.9613 -13.1116 16.0827C-11.0557 17.1729 -10.0278 19.0886 -10.0278 21.8297C-10.0278 24.1036 -10.8221 25.9414 -12.4107 27.3431C-13.9682 28.7137 -16.1798 29.6015 -19.0455 30.0064C-15.2765 30.3179 -12.5198 31.2056 -10.7754 32.6697C-8.99989 34.1025 -8.11214 36.1584 -8.11214 38.8372C-8.11214 41.8898 -9.29581 44.117 -11.6632 45.5187C-13.9993 46.8893 -17.2389 47.5746 -21.3817 47.5746ZM-24.0917 47.0139C-23.2507 47.1073 -22.5031 47.154 -21.8489 47.154C-19.2947 47.154 -17.2544 46.4999 -15.7281 45.1916C-14.2018 43.8834 -13.4387 41.7497 -13.4387 38.7905C-13.4387 33.1213 -16.4446 30.2867 -22.4564 30.2867H-22.9236C-23.3908 30.2867 -23.7802 30.2712 -24.0917 30.24V47.0139ZM-23.1105 29.8662C-20.7743 29.8662 -18.8898 29.2121 -17.4569 27.9038C-15.9929 26.5956 -15.2609 24.6176 -15.2609 21.9699C-15.2609 19.696 -15.9306 17.9361 -17.27 16.6901C-18.5783 15.4441 -20.4005 14.8211 -22.7367 14.8211L-24.0917 14.8679V29.8662H-23.1105ZM19.8429 47.5746C16.7592 47.5746 13.9557 46.936 11.4327 45.6589C8.94072 44.3818 6.96274 42.544 5.49873 40.1455C4.03471 37.747 3.30271 34.9435 3.30271 31.7352C3.30271 28.5268 4.03471 25.6144 5.49873 22.9978C6.99389 20.3501 9.08089 18.2631 11.7597 16.7368C14.4386 15.1794 17.4756 14.4006 20.8709 14.4006C23.9546 14.4006 26.7425 15.0392 29.2344 16.3163C31.7575 17.5934 33.7511 19.4312 35.2151 21.8297C36.6791 24.2282 37.4111 27.0316 37.4111 30.24C37.4111 33.4484 36.6635 36.3764 35.1684 39.0241C33.7044 41.6406 31.6329 43.7276 28.9541 45.2851C26.2753 46.8114 23.2382 47.5746 19.8429 47.5746ZM7.6013 27.3899C7.6013 30.4113 8.30216 33.3705 9.70387 36.2674C11.1367 39.1643 13.0524 41.5316 15.4509 43.3694C17.8494 45.2072 20.4504 46.1261 23.2538 46.1261C26.6179 46.1261 29.0943 45.1605 30.6829 43.2292C32.3026 41.2668 33.1125 38.3855 33.1125 34.5853C33.1125 31.5639 32.4117 28.6047 31.0099 25.7078C29.6082 22.7798 27.6926 20.4124 25.2629 18.6058C22.8644 16.768 20.2635 15.8491 17.46 15.8491C14.0959 15.8491 11.604 16.8303 9.98422 18.7927C8.39561 20.7239 7.6013 23.5897 7.6013 27.3899ZM50.8877 18.4189C49.9843 17.2664 48.6138 16.0671 46.776 14.8211V14.6343H54.9994C55.5912 16.0048 56.183 17.0795 56.7749 17.8582L72.8011 39.2577V15.1482L69.0632 14.9613V14.6343H77.053V14.9613L73.3151 15.1482V47.3409H72.6142L52.2894 20.2878V46.827L56.0273 47.0139V47.3409H48.0375V47.0139L51.7754 46.827V19.587L50.8877 18.4189Z" fill="#163300"/>
</g>
<g clip-path="url(#clip3_852_13754)">
<path d="M-108.042 47.0139L-104.304 46.827V15.1482L-108.042 14.9613V14.6343H-95.1465V14.9613L-98.8844 15.1482V46.9204H-89.82L-87.3903 41.1267H-87.0165V47.5746L-93.6513 47.3409H-108.042V47.0139ZM-61.1096 47.5746C-64.1934 47.5746 -66.9968 46.936 -69.5199 45.6589C-72.0119 44.3818 -73.9898 42.544 -75.4538 40.1455C-76.9179 37.747 -77.6499 34.9435 -77.6499 31.7352C-77.6499 28.5268 -76.9179 25.6144 -75.4538 22.9978C-73.9587 20.3501 -71.8717 18.2631 -69.1929 16.7368C-66.514 15.1794 -63.477 14.4006 -60.0817 14.4006C-56.9979 14.4006 -54.2101 15.0392 -51.7181 16.3163C-49.195 17.5934 -47.2015 19.4312 -45.7375 21.8297C-44.2735 24.2282 -43.5415 27.0316 -43.5415 30.24C-43.5415 33.4484 -44.289 36.3764 -45.7842 39.0241C-47.2482 41.6406 -49.3196 43.7276 -51.9985 45.2851C-54.6773 46.8114 -57.7144 47.5746 -61.1096 47.5746ZM-73.3513 27.3899C-73.3513 30.4113 -72.6504 33.3705 -71.2487 36.2674C-69.8158 39.1643 -67.9002 41.5316 -65.5017 43.3694C-63.1032 45.2072 -60.5022 46.1261 -57.6988 46.1261C-54.3347 46.1261 -51.8583 45.1605 -50.2697 43.2292C-48.6499 41.2668 -47.8401 38.3855 -47.8401 34.5853C-47.8401 31.5639 -48.5409 28.6047 -49.9426 25.7078C-51.3443 22.7798 -53.26 20.4124 -55.6897 18.6058C-58.0882 16.768 -60.6891 15.8491 -63.4925 15.8491C-66.8567 15.8491 -69.3486 16.8303 -70.9684 18.7927C-72.557 20.7239 -73.3513 23.5897 -73.3513 27.3899ZM-21.3798 47.5746C-22.4077 47.5746 -23.4356 47.5434 -24.4635 47.4811C-25.4603 47.45 -26.2858 47.4032 -26.9399 47.3409H-33.2476V47.0139L-29.5097 46.827V15.1482L-33.2476 14.9613V14.6343H-27.0801C-26.7686 14.6343 -26.0833 14.6031 -25.0242 14.5408C-23.0618 14.4474 -21.9872 14.4006 -21.8003 14.4006C-18.0312 14.4006 -15.1343 14.9613 -13.1096 16.0827C-11.0538 17.1729 -10.0259 19.0886 -10.0259 21.8297C-10.0259 24.1036 -10.8202 25.9414 -12.4088 27.3431C-13.9662 28.7137 -16.1778 29.6015 -19.0436 30.0064C-15.2745 30.3179 -12.5178 31.2056 -10.7734 32.6697C-8.99794 34.1025 -8.11019 36.1584 -8.11019 38.8372C-8.11019 41.8898 -9.29386 44.117 -11.6612 45.5187C-13.9974 46.8893 -17.2369 47.5746 -21.3798 47.5746ZM-24.0897 47.0139C-23.2487 47.1073 -22.5011 47.154 -21.847 47.154C-19.2928 47.154 -17.2525 46.4999 -15.7262 45.1916C-14.1999 43.8834 -13.4367 41.7497 -13.4367 38.7905C-13.4367 33.1213 -16.4426 30.2867 -22.4544 30.2867H-22.9216C-23.3889 30.2867 -23.7782 30.2712 -24.0897 30.24V47.0139ZM-23.1085 29.8662C-20.7723 29.8662 -18.8878 29.2121 -17.455 27.9038C-15.9909 26.5956 -15.2589 24.6176 -15.2589 21.9699C-15.2589 19.696 -15.9286 17.9361 -17.2681 16.6901C-18.5763 15.4441 -20.3986 14.8211 -22.7348 14.8211L-24.0897 14.8679V29.8662H-23.1085ZM19.8449 47.5746C16.7611 47.5746 13.9577 46.936 11.4346 45.6589C8.94267 44.3818 6.96469 42.544 5.50068 40.1455C4.03667 37.747 3.30466 34.9435 3.30466 31.7352C3.30466 28.5268 4.03667 25.6144 5.50068 22.9978C6.99584 20.3501 9.08284 18.2631 11.7617 16.7368C14.4405 15.1794 17.4776 14.4006 20.8728 14.4006C23.9566 14.4006 26.7445 15.0392 29.2364 16.3163C31.7595 17.5934 33.753 19.4312 35.217 21.8297C36.6811 24.2282 37.4131 27.0316 37.4131 30.24C37.4131 33.4484 36.6655 36.3764 35.1703 39.0241C33.7063 41.6406 31.6349 43.7276 28.956 45.2851C26.2772 46.8114 23.2402 47.5746 19.8449 47.5746ZM7.60325 27.3899C7.60325 30.4113 8.30411 33.3705 9.70583 36.2674C11.1387 39.1643 13.0544 41.5316 15.4529 43.3694C17.8513 45.2072 20.4523 46.1261 23.2557 46.1261C26.6199 46.1261 29.0962 45.1605 30.6848 43.2292C32.3046 41.2668 33.1145 38.3855 33.1145 34.5853C33.1145 31.5639 32.4136 28.6047 31.0119 25.7078C29.6102 22.7798 27.6945 20.4124 25.2649 18.6058C22.8664 16.768 20.2654 15.8491 17.462 15.8491C14.0979 15.8491 11.6059 16.8303 9.98617 18.7927C8.39756 20.7239 7.60325 23.5897 7.60325 27.3899ZM50.8896 18.4189C49.9863 17.2664 48.6157 16.0671 46.7779 14.8211V14.6343H55.0013C55.5931 16.0048 56.185 17.0795 56.7768 17.8582L72.8031 39.2577V15.1482L69.0652 14.9613V14.6343H77.055V14.9613L73.317 15.1482V47.3409H72.6162L52.2913 20.2878V46.827L56.0292 47.0139V47.3409H48.0395V47.0139L51.7774 46.827V19.587L50.8896 18.4189Z" fill="#163300"/>
</g>
<path d="M10.5858 56.9301H7.13074V50.9436H8.24986V55.9353H10.5858V56.9301ZM16.6555 53.9191C16.6555 54.8428 16.3979 55.5859 15.8828 56.1484C15.3735 56.711 14.6896 56.9922 13.831 56.9922C12.9725 56.9922 12.2856 56.711 11.7704 56.1484C11.2553 55.5859 10.9977 54.8428 10.9977 53.9191C10.9977 52.9894 11.2523 52.2434 11.7616 51.6808C12.2767 51.1183 12.9636 50.837 13.8222 50.837C14.6926 50.837 15.3824 51.1183 15.8917 51.6808C16.4009 52.2374 16.6555 52.9835 16.6555 53.9191ZM12.1968 53.9191C12.1968 54.5467 12.3448 55.0441 12.6409 55.4112C12.9369 55.7784 13.3337 55.9619 13.831 55.9619C14.3344 55.9619 14.7311 55.7813 15.0212 55.4201C15.3114 55.053 15.4564 54.5527 15.4564 53.9191C15.4564 53.2855 15.3114 52.7852 15.0212 52.418C14.7311 52.0509 14.3314 51.8674 13.8222 51.8674C13.3189 51.8674 12.9221 52.0509 12.632 52.418C12.3418 52.7852 12.1968 53.2855 12.1968 53.9191ZM19.8855 56.9301H17.4607V50.9436H19.5835C20.223 50.9436 20.7204 51.0946 21.0756 51.3966C21.4309 51.6986 21.6086 52.0894 21.6086 52.569C21.6086 52.8947 21.5197 53.1789 21.3421 53.4217C21.1645 53.6585 20.9365 53.8155 20.6582 53.8924C20.9779 53.9694 21.2414 54.1263 21.4487 54.3632C21.6559 54.5941 21.7596 54.9109 21.7596 55.3135C21.7596 55.7872 21.5938 56.1751 21.2622 56.4771C20.9306 56.7791 20.4717 56.9301 19.8855 56.9301ZM19.4414 51.8585H18.5798V53.4661H19.2549C19.6575 53.4661 19.9595 53.3862 20.1608 53.2263C20.3621 53.0664 20.4628 52.8621 20.4628 52.6134C20.4628 52.3825 20.3769 52.1989 20.2052 52.0628C20.0394 51.9266 19.7848 51.8585 19.4414 51.8585ZM19.4947 54.3632H18.5798V56.0152H19.5391C20.2556 56.0152 20.6138 55.7428 20.6138 55.1981C20.6138 54.6415 20.2407 54.3632 19.4947 54.3632ZM27.9396 53.9191C27.9396 54.8428 27.682 55.5859 27.1669 56.1484C26.6576 56.711 25.9737 56.9922 25.1151 56.9922C24.2565 56.9922 23.5697 56.711 23.0545 56.1484C22.5394 55.5859 22.2818 54.8428 22.2818 53.9191C22.2818 52.9894 22.5364 52.2434 23.0456 51.6808C23.5608 51.1183 24.2477 50.837 25.1062 50.837C25.9767 50.837 26.6665 51.1183 27.1757 51.6808C27.685 52.2374 27.9396 52.9835 27.9396 53.9191ZM23.4808 53.9191C23.4808 54.5467 23.6289 55.0441 23.9249 55.4112C24.221 55.7784 24.6177 55.9619 25.1151 55.9619C25.6184 55.9619 26.0152 55.7813 26.3053 55.4201C26.5954 55.053 26.7405 54.5527 26.7405 53.9191C26.7405 53.2855 26.5954 52.7852 26.3053 52.418C26.0152 52.0509 25.6155 51.8674 25.1062 51.8674C24.6029 51.8674 24.2062 52.0509 23.9161 52.418C23.6259 52.7852 23.4808 53.2855 23.4808 53.9191ZM29.8639 56.9301H28.7448V50.9436H30.0149L31.4538 53.4395C31.6906 53.848 31.9008 54.2299 32.0844 54.5852C32.2739 54.9346 32.4012 55.1833 32.4663 55.3313L32.564 55.5534C32.5166 55.0619 32.493 54.3573 32.493 53.4395V50.9436H33.621V56.9301H32.342L30.8853 54.4431C30.6544 54.0523 30.4442 53.6793 30.2547 53.324C30.0712 52.9628 29.9438 52.7023 29.8728 52.5424L29.7662 52.2937C29.8313 52.8562 29.8639 53.5697 29.8639 54.4342V56.9301Z" fill="#1D3200"/>
<g clip-path="url(#clip4_852_13754)">
<rect width="2.65708" height="48.2703" transform="matrix(-1 0 0 1 27.4453 -0.00183105)" fill="#FF3A69"/>
<rect width="2.65708" height="43.399" transform="matrix(-1 0 0 1 21.709 6.99731)" fill="#FF3A69"/>
<rect width="2.68106" height="38.7491" transform="matrix(-1 0 0 1 15.5312 11.4158)" fill="#FF3A69"/>
</g>
</g>
<defs>
<clipPath id="clip0_852_13754">
<rect width="40.4888" height="56.9374" fill="white" transform="translate(0.220703 0.8396)"/>
</clipPath>
<clipPath id="clip1_852_13754">
<rect width="15.0559" height="48.2703" fill="white" transform="translate(12.8457 0.847778)"/>
</clipPath>
<clipPath id="clip2_852_13754">
<rect width="33.6563" height="25.4637" fill="white" transform="translate(3.32227 11.3217)"/>
</clipPath>
<clipPath id="clip3_852_13754">
<rect width="40.299" height="40.5205" fill="white" transform="translate(0.222656 11.3217)"/>
</clipPath>
<clipPath id="clip4_852_13754">
<rect width="15.0596" height="38.7246" fill="white" transform="translate(12.4277 0.309937)"/>
</clipPath>
</defs>
</svg>
